<svg width="427" height="421" viewBox="0 0 427 421" fill="none" xmlns="http://www.w3.org/2000/svg">
<g filter="url(#filter0_d_673_4718)">
<rect x="16" y="13" width="395" height="389.376" rx="15.2412" fill="white" shape-rendering="crispEdges"/>
<path d="M37.8298 55.3213V40.8739H43.0987C44.7128 40.8739 45.9531 41.2808 46.8197 42.0944C47.6863 42.9081 48.1195 44.0326 48.1195 45.4681C48.1195 46.897 47.6863 48.0248 46.8197 48.8517C45.9597 49.6786 44.7161 50.0921 43.0888 50.0921H40.499V55.3213H37.8298ZM40.499 48.0678H42.8506C43.823 48.0678 44.4978 47.8297 44.8748 47.3534C45.2585 46.8705 45.4504 46.2454 45.4504 45.478C45.4504 44.7107 45.2585 44.0922 44.8748 43.6225C44.4978 43.1528 43.823 42.918 42.8506 42.918H40.499V48.0678ZM49.9155 55.3213V40.219H52.5053V55.3213H49.9155ZM54.599 52.3147C54.599 51.21 55.0257 50.3699 55.879 49.7944C56.739 49.2123 57.8305 48.9212 59.1535 48.9212H61.3166V48.2861C61.3166 47.7702 61.181 47.3567 60.9098 47.0458C60.6452 46.7283 60.1888 46.5695 59.5405 46.5695C58.8856 46.5695 58.4159 46.7018 58.1315 46.9664C57.847 47.2244 57.7048 47.5419 57.7048 47.919V48.048H55.1745V47.9091C55.1745 47.016 55.5847 46.2719 56.4049 45.6765C57.2252 45.0745 58.3035 44.7735 59.6397 44.7735C60.9892 44.7735 62.0344 45.0613 62.7753 45.6368C63.5228 46.2123 63.8965 47.102 63.8965 48.306V52.9895C63.8965 53.4062 63.9329 53.8064 64.0057 54.1901C64.0784 54.5672 64.1777 54.8913 64.3033 55.1625V55.3213H61.7731C61.6871 55.1625 61.611 54.9575 61.5449 54.7061C61.4787 54.4547 61.4357 54.2066 61.4159 53.9619C61.1976 54.3654 60.8073 54.7259 60.245 55.0435C59.6893 55.3544 58.9848 55.5098 58.1315 55.5098C57.126 55.5098 56.2859 55.2419 55.6111 54.7061C54.9364 54.1636 54.599 53.3665 54.599 52.3147ZM57.1888 52.1064C57.1888 52.6025 57.331 52.9961 57.6155 53.2872C57.9066 53.5782 58.3564 53.7237 58.965 53.7237C59.6 53.7237 60.1491 53.5154 60.6121 53.0986C61.0818 52.6753 61.3166 52.1924 61.3166 51.6499V50.5187H59.5603C58.7665 50.5187 58.1712 50.6577 57.7743 50.9355C57.384 51.2133 57.1888 51.6036 57.1888 52.1064ZM66.5062 55.3213V45.0613H68.9471L69.0067 46.3016H69.0662C69.3573 45.865 69.7707 45.5144 70.3065 45.2498C70.8424 44.9852 71.4377 44.8529 72.0926 44.8529C73.1378 44.8529 73.9845 45.1506 74.6328 45.746C75.2811 46.3347 75.6052 47.3501 75.6052 48.7922V55.3213H73.0154V48.8021C73.0154 48.1009 72.8633 47.6048 72.559 47.3137C72.2547 47.0227 71.8214 46.8771 71.2591 46.8771C70.7894 46.8771 70.3628 47.0094 69.9791 47.274C69.5954 47.532 69.301 47.8859 69.096 48.3358V55.3213H66.5062ZM82.4121 59.4392L82.432 57.4943C82.604 57.5473 82.7925 57.5903 82.9976 57.6233C83.2026 57.6564 83.4011 57.673 83.5929 57.673C84.0494 57.673 84.443 57.5142 84.7737 57.1967C85.1111 56.8791 85.4253 56.2441 85.7164 55.2915L85.6568 55.2816L81.7076 45.0613H84.2974L86.5003 51.2828C86.5863 51.5342 86.6557 51.7624 86.7086 51.9674C86.7616 52.1725 86.8112 52.3776 86.8575 52.5826H86.917C86.9633 52.3776 87.0129 52.1725 87.0659 51.9674C87.1254 51.7624 87.1982 51.5342 87.2842 51.2828L89.3977 45.0613H91.7593L87.5521 56.5219C87.1684 57.5605 86.6723 58.3411 86.0637 58.8637C85.4617 59.3863 84.7142 59.6476 83.8212 59.6476C83.5169 59.6476 83.2523 59.631 83.0273 59.5979C82.809 59.5649 82.604 59.5119 82.4121 59.4392ZM92.2653 50.3401V50.0226C92.2653 48.435 92.7416 47.1616 93.6942 46.2024C94.6467 45.2432 95.897 44.7636 97.4449 44.7636C98.9929 44.7636 100.24 45.2432 101.186 46.2024C102.138 47.1616 102.615 48.435 102.615 50.0226V50.3401C102.615 51.9344 102.138 53.2111 101.186 54.1703C100.24 55.1295 98.9929 55.609 97.4449 55.609C95.897 55.609 94.6467 55.1295 93.6942 54.1703C92.7416 53.2111 92.2653 51.9344 92.2653 50.3401ZM94.9147 49.9234V50.4493C94.9147 51.4217 95.1296 52.1957 95.5596 52.7712C95.9962 53.3401 96.6247 53.6245 97.4449 53.6245C98.2652 53.6245 98.8903 53.3401 99.3203 52.7712C99.7569 52.1957 99.9752 51.4217 99.9752 50.4493V49.9234C99.9752 48.9443 99.7569 48.1704 99.3203 47.6015C98.8837 47.0326 98.2586 46.7481 97.4449 46.7481C96.6313 46.7481 96.0061 47.0326 95.5695 47.6015C95.133 48.1704 94.9147 48.9443 94.9147 49.9234ZM104.53 51.5011V45.0613H107.119V51.511C107.119 52.2519 107.275 52.7712 107.586 53.0689C107.903 53.3665 108.337 53.5154 108.886 53.5154C109.369 53.5154 109.799 53.3765 110.176 53.0986C110.553 52.8208 110.84 52.4702 111.039 52.0468V45.0613H113.629V55.3213H111.188L111.118 54.081H111.079C110.754 54.5242 110.324 54.8781 109.789 55.1427C109.259 55.4007 108.661 55.5297 107.993 55.5297C106.967 55.5297 106.134 55.2221 105.492 54.6069C104.851 53.985 104.53 52.9498 104.53 51.5011ZM116.219 55.3213V45.0613H118.679L118.739 46.2719H118.788C119.02 45.8683 119.331 45.521 119.721 45.23C120.118 44.9323 120.571 44.7835 121.081 44.7835C121.226 44.7835 121.372 44.8 121.517 44.8331C121.669 44.8661 121.779 44.8959 121.845 44.9224V47.145C121.726 47.1186 121.593 47.0987 121.448 47.0855C121.309 47.0657 121.157 47.0557 120.991 47.0557C120.495 47.0557 120.055 47.198 119.672 47.4824C119.288 47.7669 119.003 48.1241 118.818 48.5541V55.3213H116.219ZM127.004 46.9664V45.0613H133.266V46.9664H127.004ZM128.642 52.414V46.0039L128.662 45.736V42.4516H131.222V52.2949C131.222 52.7976 131.311 53.1416 131.489 53.3268C131.668 53.5121 131.933 53.6047 132.283 53.6047C132.442 53.6047 132.601 53.5881 132.76 53.5551C132.925 53.5154 133.084 53.4658 133.236 53.4062V55.3114C133.077 55.3841 132.852 55.4503 132.561 55.5098C132.277 55.5694 131.962 55.5991 131.618 55.5991C130.712 55.5991 129.988 55.3444 129.445 54.8351C128.91 54.3257 128.642 53.5187 128.642 52.414ZM134.972 55.3213V45.0613H137.433L137.493 46.2719H137.542C137.774 45.8683 138.085 45.521 138.475 45.23C138.872 44.9323 139.325 44.7835 139.834 44.7835C139.98 44.7835 140.125 44.8 140.271 44.8331C140.423 44.8661 140.532 44.8959 140.598 44.9224V47.145C140.479 47.1186 140.347 47.0987 140.202 47.0855C140.063 47.0657 139.91 47.0557 139.745 47.0557C139.249 47.0557 138.809 47.198 138.425 47.4824C138.042 47.7669 137.757 48.1241 137.572 48.5541V55.3213H134.972ZM142.206 55.3213V45.0613H144.806V55.3213H142.206ZM141.968 42.025C141.968 41.6281 142.1 41.294 142.365 41.0228C142.636 40.7449 143.016 40.606 143.506 40.606C144.002 40.606 144.382 40.7449 144.647 41.0228C144.911 41.294 145.044 41.6281 145.044 42.025C145.044 42.4285 144.908 42.7692 144.637 43.047C144.372 43.3182 143.995 43.4538 143.506 43.4538C143.01 43.4538 142.629 43.3182 142.365 43.047C142.1 42.7692 141.968 42.4285 141.968 42.025ZM147.435 59.4789V45.0613H149.856L149.916 46.2917H149.965C150.197 45.8816 150.581 45.5409 151.116 45.2697C151.652 44.9918 152.261 44.8529 152.942 44.8529C154.252 44.8529 155.304 45.3259 156.098 46.2719C156.891 47.2112 157.288 48.4614 157.288 50.0226V50.3401C157.288 51.8881 156.895 53.1383 156.108 54.0909C155.32 55.0435 154.282 55.5197 152.992 55.5197C152.317 55.5197 151.722 55.404 151.206 55.1724C150.69 54.9409 150.296 54.6234 150.025 54.2199V59.4789H147.435ZM150.025 52.0171C150.19 52.4272 150.471 52.7877 150.868 53.0986C151.272 53.4029 151.748 53.5551 152.297 53.5551C153.098 53.5551 153.69 53.2706 154.073 52.7017C154.464 52.1328 154.659 51.3787 154.659 50.4394V49.9234C154.659 48.984 154.464 48.2332 154.073 47.6709C153.69 47.1087 153.094 46.8275 152.287 46.8275C151.725 46.8275 151.249 46.9797 150.858 47.284C150.475 47.5816 150.197 47.9289 150.025 48.3258V52.0171Z" fill="#201D23"/>
<g clip-path="url(#clip0_673_4718)">
<rect x="36.3215" y="84.6426" width="354.357" height="205.447" rx="15.2412" fill="white"/>
<path d="M39.6295 103.695L36.608 91.0012H38.9262L40.8884 99.7963C40.9289 99.9873 40.9579 100.144 40.9752 100.265C40.9926 100.381 41.0129 100.534 41.036 100.725H41.1142C41.1373 100.534 41.1576 100.381 41.1749 100.265C41.1923 100.144 41.2241 99.9873 41.2704 99.7963L43.415 91.0012H45.9242L48.1295 99.7876C48.1758 99.9786 48.2076 100.135 48.225 100.256C48.2423 100.378 48.2597 100.534 48.2771 100.725H48.3552C48.3726 100.534 48.3928 100.378 48.416 100.256C48.4391 100.135 48.4681 99.9786 48.5028 99.7876L50.3955 91.0012H52.5053L49.5273 103.695H47.0268L44.7868 94.8908C44.7347 94.6998 44.6942 94.5233 44.6652 94.3612C44.6363 94.1991 44.6102 94.0197 44.5871 93.8229H44.5176C44.4945 94.0197 44.4684 94.1991 44.4395 94.3612C44.4105 94.5233 44.3729 94.6998 44.3266 94.8908L42.0866 103.695H39.6295ZM53.9466 103.643V90.3934H56.2127V95.7677C56.4905 95.3683 56.861 95.0442 57.324 94.7953C57.7929 94.5406 58.3485 94.4133 58.991 94.4133C59.8419 94.4133 60.5394 94.6796 61.0835 95.2121C61.6333 95.7446 61.9083 96.6157 61.9083 97.8254V103.643H59.6509V97.947C59.6509 97.3103 59.5091 96.8588 59.2254 96.5926C58.9418 96.3205 58.554 96.1845 58.062 96.1845C57.6279 96.1845 57.2517 96.306 56.9333 96.5491C56.6207 96.7865 56.3805 97.1106 56.2127 97.5216V103.643H53.9466ZM63.6534 99.2493V98.9715C63.6534 97.5881 64.0586 96.471 64.8689 95.6201C65.6851 94.7635 66.7414 94.3352 68.038 94.3352C69.3345 94.3352 70.3446 94.7345 71.0681 95.5333C71.7916 96.3321 72.1534 97.4289 72.1534 98.8239V99.6487H65.1294V98.1727H69.9133V97.9817C69.9191 97.4318 69.76 96.9659 69.4358 96.5839C69.1175 96.2018 68.6573 96.0108 68.0553 96.0108C67.3492 96.0108 66.8167 96.2771 66.4578 96.8096C66.0989 97.3363 65.9195 98.0251 65.9195 98.876V99.3362C65.9195 100.187 66.1105 100.876 66.4925 101.403C66.8803 101.929 67.4563 102.193 68.2203 102.193C68.7355 102.193 69.1782 102.074 69.5487 101.837C69.9191 101.594 70.2172 101.31 70.443 100.986L72.0318 102.019C71.7424 102.54 71.2707 102.986 70.6166 103.356C69.9625 103.721 69.1754 103.903 68.255 103.903C66.8022 103.903 65.6706 103.478 64.8603 102.627C64.0557 101.77 63.6534 100.644 63.6534 99.2493ZM73.8638 103.643V94.5956H76.0083L76.0604 95.6549H76.1125C76.3093 95.3018 76.5785 94.9979 76.92 94.7432C77.2673 94.4828 77.6637 94.3525 78.1094 94.3525C78.231 94.3525 78.3554 94.367 78.4828 94.3959C78.6159 94.4191 78.7114 94.4422 78.7693 94.4654V96.4276C78.6593 96.4044 78.5436 96.3871 78.422 96.3755C78.3004 96.3581 78.1702 96.3494 78.0313 96.3494C77.5972 96.3494 77.2123 96.4739 76.8766 96.7228C76.5408 96.9717 76.2948 97.2842 76.1386 97.6605V103.643H73.8638ZM79.4899 99.2493V98.9715C79.4899 97.5881 79.8951 96.471 80.7054 95.6201C81.5216 94.7635 82.5779 94.3352 83.8745 94.3352C85.171 94.3352 86.1811 94.7345 86.9046 95.5333C87.6281 96.3321 87.9899 97.4289 87.9899 98.8239V99.6487H80.9659V98.1727H85.7499V97.9817C85.7557 97.4318 85.5965 96.9659 85.2723 96.5839C84.954 96.2018 84.4938 96.0108 83.8919 96.0108C83.1857 96.0108 82.6532 96.2771 82.2943 96.8096C81.9354 97.3363 81.756 98.0251 81.756 98.876V99.3362C81.756 100.187 81.947 100.876 82.329 101.403C82.7168 101.929 83.2928 102.193 84.0568 102.193C84.572 102.193 85.0148 102.074 85.3852 101.837C85.7557 101.594 86.0537 101.31 86.2795 100.986L87.8683 102.019C87.5789 102.54 87.1072 102.986 86.4531 103.356C85.7991 103.721 85.0119 103.903 84.0915 103.903C82.6387 103.903 81.5071 103.478 80.6968 102.627C79.8922 101.77 79.4899 100.644 79.4899 99.2493ZM93.5032 99.258V98.9802C93.5032 97.6431 93.8591 96.5491 94.5711 95.6983C95.283 94.8474 96.2207 94.422 97.3841 94.422C97.9745 94.422 98.4839 94.5291 98.9122 94.7432C99.3406 94.9516 99.6763 95.2265 99.9194 95.568V90.3934H102.168V103.643H100.041L99.9888 102.54H99.9454C99.737 102.899 99.4071 103.203 98.9556 103.452C98.5042 103.695 97.9803 103.816 97.3841 103.816C96.186 103.816 95.2396 103.391 94.545 102.54C93.8505 101.689 93.5032 100.595 93.5032 99.258ZM95.8126 99.3275C95.8126 100.132 95.9863 100.795 96.3336 101.316C96.6867 101.831 97.2192 102.088 97.9311 102.088C98.4173 102.088 98.8283 101.955 99.164 101.689C99.5055 101.423 99.7544 101.113 99.9107 100.76V97.4695C99.7544 97.1106 99.5113 96.8009 99.1814 96.5405C98.8515 96.28 98.4347 96.1498 97.9311 96.1498C97.225 96.1498 96.6954 96.4102 96.3423 96.9312C95.9892 97.4463 95.8126 98.1033 95.8126 98.902V99.3275ZM103.957 99.2493V98.9715C103.957 97.5708 104.373 96.4478 105.207 95.6028C106.046 94.7577 107.146 94.3352 108.506 94.3352C109.866 94.3352 110.963 94.7577 111.797 95.6028C112.636 96.4478 113.056 97.5708 113.056 98.9715V99.2493C113.056 100.656 112.636 101.782 111.797 102.627C110.963 103.472 109.866 103.894 108.506 103.894C107.146 103.894 106.046 103.472 105.207 102.627C104.373 101.782 103.957 100.656 103.957 99.2493ZM106.266 98.8847V99.3448C106.266 100.213 106.457 100.899 106.839 101.403C107.227 101.906 107.783 102.158 108.506 102.158C109.23 102.158 109.782 101.906 110.164 101.403C110.547 100.899 110.738 100.213 110.738 99.3448V98.8847C110.738 98.0164 110.544 97.3305 110.156 96.827C109.774 96.3234 109.224 96.0716 108.506 96.0716C107.788 96.0716 107.236 96.3234 106.848 96.827C106.46 97.3305 106.266 98.0164 106.266 98.8847ZM118.673 107.246L118.691 105.535C118.835 105.582 118.997 105.619 119.177 105.648C119.356 105.677 119.53 105.692 119.698 105.692C120.097 105.692 120.441 105.556 120.731 105.284C121.026 105.011 121.301 104.453 121.556 103.608H121.504L118.031 94.5956H120.288L122.233 100.083C122.308 100.303 122.369 100.505 122.415 100.691C122.462 100.876 122.505 101.058 122.545 101.238H122.598C122.644 101.058 122.69 100.876 122.736 100.691C122.789 100.505 122.852 100.303 122.927 100.083L124.785 94.5956H126.843L123.136 104.719C122.806 105.611 122.375 106.285 121.842 106.742C121.31 107.199 120.656 107.428 119.88 107.428C119.62 107.428 119.394 107.414 119.203 107.385C119.012 107.356 118.835 107.309 118.673 107.246ZM127.312 99.2493V98.9715C127.312 97.5708 127.729 96.4478 128.562 95.6028C129.402 94.7577 130.501 94.3352 131.862 94.3352C133.222 94.3352 134.319 94.7577 135.152 95.6028C135.991 96.4478 136.411 97.5708 136.411 98.9715V99.2493C136.411 100.656 135.991 101.782 135.152 102.627C134.319 103.472 133.222 103.894 131.862 103.894C130.501 103.894 129.402 103.472 128.562 102.627C127.729 101.782 127.312 100.656 127.312 99.2493ZM129.622 98.8847V99.3448C129.622 100.213 129.813 100.899 130.195 101.403C130.582 101.906 131.138 102.158 131.862 102.158C132.585 102.158 133.138 101.906 133.52 101.403C133.902 100.899 134.093 100.213 134.093 99.3448V98.8847C134.093 98.0164 133.899 97.3305 133.511 96.827C133.129 96.3234 132.579 96.0716 131.862 96.0716C131.144 96.0716 130.591 96.3234 130.203 96.827C129.815 97.3305 129.622 98.0164 129.622 98.8847ZM138.121 100.256V94.5956H140.379V100.283C140.379 100.937 140.518 101.397 140.796 101.663C141.073 101.923 141.453 102.054 141.933 102.054C142.367 102.054 142.749 101.932 143.079 101.689C143.415 101.446 143.669 101.139 143.843 100.769V94.5956H146.101V103.643H143.973L143.921 102.557H143.869C143.586 102.951 143.209 103.261 142.74 103.486C142.277 103.712 141.754 103.825 141.169 103.825C140.266 103.825 139.531 103.55 138.964 103C138.402 102.45 138.121 101.536 138.121 100.256ZM151.735 94.5956H153.975L155.417 99.9439C155.475 100.17 155.521 100.369 155.556 100.543C155.596 100.717 155.637 100.913 155.677 101.133H155.729C155.764 100.913 155.799 100.717 155.833 100.543C155.868 100.369 155.92 100.17 155.99 99.9439L157.631 94.5956H159.749L161.451 99.9439C161.52 100.175 161.575 100.378 161.616 100.552C161.656 100.725 161.697 100.922 161.737 101.142H161.789C161.824 100.922 161.859 100.725 161.894 100.552C161.928 100.372 161.972 100.17 162.024 99.9439L163.456 94.5956H165.453L162.718 103.643H160.635L158.916 98.3116C158.852 98.0975 158.791 97.8804 158.733 97.6605C158.681 97.4347 158.632 97.2148 158.586 97.0006H158.542C158.502 97.2148 158.453 97.4347 158.395 97.6605C158.337 97.8804 158.276 98.0975 158.212 98.3116L156.554 103.643H154.462L151.735 94.5956ZM166.278 100.986C166.278 100.013 166.657 99.2725 167.416 98.7631C168.174 98.2538 169.135 97.9962 170.298 97.9904H172.182V97.4347C172.182 96.9833 172.063 96.6186 171.826 96.3408C171.595 96.0629 171.189 95.924 170.611 95.924C170.032 95.924 169.618 96.0398 169.369 96.2713C169.126 96.5028 169.004 96.7836 169.004 97.1135V97.2264L166.782 97.2177V97.1048C166.782 96.3234 167.141 95.6664 167.858 95.1339C168.582 94.6014 169.531 94.3352 170.706 94.3352C171.881 94.3352 172.796 94.5927 173.45 95.1079C174.11 95.6172 174.44 96.3986 174.44 97.4521V101.594C174.44 101.964 174.471 102.317 174.535 102.653C174.599 102.983 174.686 103.266 174.796 103.504V103.643H172.582C172.512 103.504 172.448 103.324 172.391 103.104C172.333 102.884 172.292 102.667 172.269 102.453C172.084 102.806 171.745 103.122 171.253 103.399C170.761 103.672 170.142 103.808 169.395 103.808C168.515 103.808 167.774 103.57 167.172 103.096C166.576 102.621 166.278 101.918 166.278 100.986ZM168.544 100.803C168.544 101.243 168.669 101.594 168.918 101.854C169.172 102.109 169.572 102.236 170.116 102.236C170.677 102.236 171.161 102.051 171.566 101.68C171.977 101.304 172.182 100.879 172.182 100.404V99.4056H170.628C169.928 99.4056 169.404 99.5272 169.057 99.7703C168.715 100.013 168.544 100.358 168.544 100.803ZM176.749 103.643V94.5956H178.885L178.937 95.6722H178.989C179.25 95.296 179.614 94.9921 180.083 94.7606C180.552 94.5291 181.073 94.4133 181.646 94.4133C182.566 94.4133 183.31 94.6767 183.877 95.2034C184.45 95.7243 184.737 96.6244 184.737 97.9036V103.643H182.479V97.8775C182.479 97.264 182.343 96.8299 182.071 96.5752C181.805 96.3147 181.423 96.1845 180.925 96.1845C180.508 96.1845 180.129 96.3002 179.788 96.5318C179.452 96.7633 179.195 97.0788 179.015 97.4781V103.643H176.749ZM185.822 96.2626V94.5956H191.301V96.2626H185.822ZM187.263 101.09V95.4465L187.272 95.2121V92.3469H189.512V101.012C189.512 101.44 189.59 101.735 189.746 101.897C189.903 102.06 190.134 102.141 190.441 102.141C190.58 102.141 190.719 102.126 190.858 102.097C191.002 102.062 191.141 102.019 191.275 101.967V103.634C191.136 103.703 190.942 103.764 190.693 103.816C190.444 103.868 190.172 103.894 189.877 103.894C189.084 103.894 188.45 103.669 187.975 103.217C187.501 102.766 187.263 102.057 187.263 101.09ZM195.998 96.2626V94.5956H201.476V96.2626H195.998ZM197.439 101.09V95.4465L197.448 95.2121V92.3469H199.688V101.012C199.688 101.44 199.766 101.735 199.922 101.897C200.078 102.06 200.31 102.141 200.617 102.141C200.756 102.141 200.895 102.126 201.033 102.097C201.178 102.062 201.317 102.019 201.45 101.967V103.634C201.311 103.703 201.117 103.764 200.868 103.816C200.62 103.868 200.348 103.894 200.052 103.894C199.259 103.894 198.626 103.669 198.151 103.217C197.676 102.766 197.439 102.057 197.439 101.09ZM202.327 99.2493V98.9715C202.327 97.5708 202.744 96.4478 203.577 95.6028C204.417 94.7577 205.516 94.3352 206.877 94.3352C208.237 94.3352 209.334 94.7577 210.167 95.6028C211.006 96.4478 211.426 97.5708 211.426 98.9715V99.2493C211.426 100.656 211.006 101.782 210.167 102.627C209.334 103.472 208.237 103.894 206.877 103.894C205.516 103.894 204.417 103.472 203.577 102.627C202.744 101.782 202.327 100.656 202.327 99.2493ZM204.637 98.8847V99.3448C204.637 100.213 204.828 100.899 205.21 101.403C205.597 101.906 206.153 102.158 206.877 102.158C207.6 102.158 208.153 101.906 208.535 101.403C208.917 100.899 209.108 100.213 209.108 99.3448V98.8847C209.108 98.0164 208.914 97.3305 208.526 96.827C208.144 96.3234 207.594 96.0716 206.877 96.0716C206.159 96.0716 205.606 96.3234 205.218 96.827C204.83 97.3305 204.637 98.0164 204.637 98.8847ZM217.495 106.178L218.52 104.711C218.751 104.948 219.104 105.171 219.579 105.379C220.059 105.587 220.586 105.692 221.159 105.692C221.836 105.692 222.383 105.486 222.8 105.075C223.217 104.67 223.425 104.059 223.425 103.243V102.644C223.182 103.003 222.843 103.287 222.409 103.495C221.981 103.703 221.463 103.808 220.855 103.808C219.703 103.808 218.774 103.388 218.068 102.549C217.368 101.709 217.018 100.612 217.018 99.258V98.9802C217.018 97.6257 217.368 96.5289 218.068 95.6896C218.768 94.8445 219.697 94.422 220.855 94.422C221.446 94.422 221.972 94.5435 222.435 94.7866C222.898 95.0239 223.234 95.3249 223.442 95.6896H223.486L223.547 94.5956H225.674V103.174C225.674 104.546 225.263 105.599 224.441 106.334C223.619 107.069 222.568 107.437 221.289 107.437C220.508 107.437 219.787 107.315 219.127 107.072C218.473 106.835 217.929 106.537 217.495 106.178ZM219.327 99.3275C219.327 100.132 219.501 100.792 219.848 101.307C220.195 101.822 220.734 102.08 221.463 102.08C221.943 102.08 222.351 101.944 222.687 101.672C223.029 101.4 223.272 101.087 223.416 100.734V97.5302C223.266 97.1424 223.02 96.8154 222.678 96.5491C222.337 96.2829 221.923 96.1498 221.437 96.1498C220.725 96.1498 220.195 96.4102 219.848 96.9312C219.501 97.4463 219.327 98.1033 219.327 98.902V99.3275ZM227.471 99.2493V98.9715C227.471 97.5708 227.888 96.4478 228.721 95.6028C229.561 94.7577 230.66 94.3352 232.021 94.3352C233.381 94.3352 234.478 94.7577 235.311 95.6028C236.15 96.4478 236.57 97.5708 236.57 98.9715V99.2493C236.57 100.656 236.15 101.782 235.311 102.627C234.478 103.472 233.381 103.894 232.021 103.894C230.66 103.894 229.561 103.472 228.721 102.627C227.888 101.782 227.471 100.656 227.471 99.2493ZM229.781 98.8847V99.3448C229.781 100.213 229.972 100.899 230.354 101.403C230.741 101.906 231.297 102.158 232.021 102.158C232.744 102.158 233.297 101.906 233.679 101.403C234.061 100.899 234.252 100.213 234.252 99.3448V98.8847C234.252 98.0164 234.058 97.3305 233.67 96.827C233.288 96.3234 232.738 96.0716 232.021 96.0716C231.303 96.0716 230.75 96.3234 230.362 96.827C229.974 97.3305 229.781 98.0164 229.781 98.8847ZM240.008 102.54C240.008 102.181 240.13 101.877 240.373 101.628C240.622 101.374 240.975 101.246 241.432 101.246C241.895 101.246 242.248 101.374 242.491 101.628C242.735 101.877 242.856 102.181 242.856 102.54C242.856 102.893 242.735 103.197 242.491 103.452C242.248 103.706 241.895 103.834 241.432 103.834C240.981 103.834 240.631 103.706 240.382 103.452C240.133 103.197 240.008 102.893 240.008 102.54ZM237.829 94.4133V94.1355C237.829 93.0936 238.179 92.2832 238.88 91.7044C239.58 91.1198 240.512 90.8275 241.675 90.8275C242.856 90.8275 243.794 91.1285 244.488 91.7305C245.189 92.3266 245.539 93.1428 245.539 94.1789C245.539 94.9776 245.336 95.6549 244.931 96.2105C244.532 96.7662 244.095 97.235 243.62 97.6171C243.145 97.9991 242.845 98.3753 242.717 98.7458C242.596 99.1104 242.535 99.478 242.535 99.8484V99.9526H240.234V99.8397C240.234 99.1451 240.33 98.5663 240.521 98.1033C240.717 97.6402 241.105 97.1511 241.684 96.636C242.17 96.2076 242.544 95.8314 242.804 95.5073C243.07 95.1831 243.203 94.7606 243.203 94.2396C243.203 93.7013 243.079 93.2933 242.83 93.0154C242.581 92.7318 242.19 92.59 241.658 92.59C241.143 92.59 240.752 92.726 240.486 92.9981C240.225 93.2643 240.095 93.6608 240.095 94.1876V94.4133H237.829Z" fill="#201D23"/>
<g filter="url(#filter1_d_673_4718)">
<rect x="36.3215" y="120.804" width="354.357" height="61.4823" rx="30.7412" fill="white"/>
<path d="M53.1901 158.045V143.598H62.0013V145.086H54.9861V149.849H61.0785V151.337H54.9861V156.557H62.1006V158.045H53.1901ZM64.1645 158.045V147.805H65.7323L65.8017 149.134H65.8613C66.2251 148.658 66.6749 148.284 67.2107 148.013C67.7532 147.742 68.3551 147.606 69.0166 147.606C70.042 147.606 70.8589 147.897 71.4675 148.48C72.0761 149.062 72.3804 150.037 72.3804 151.407V158.045H70.644V151.407C70.644 150.567 70.4554 149.968 70.0784 149.611C69.7079 149.247 69.182 149.065 68.5007 149.065C67.9119 149.065 67.3926 149.227 66.9428 149.551C66.493 149.869 66.1457 150.279 65.9009 150.782V158.045H64.1645ZM73.7101 149.144V147.805H79.5247V149.144H73.7101ZM75.5457 155.475V148.589V148.321V145.086H77.2822V155.475C77.2822 155.978 77.3748 156.328 77.56 156.527C77.7453 156.725 78.0396 156.824 78.4431 156.824C78.6218 156.824 78.7971 156.808 78.969 156.775C79.1477 156.735 79.3263 156.682 79.5049 156.616V158.045C79.3395 158.124 79.1245 158.19 78.8599 158.243C78.5953 158.303 78.3075 158.333 77.9966 158.333C77.2491 158.333 76.6538 158.108 76.2106 157.658C75.7673 157.201 75.5457 156.474 75.5457 155.475ZM80.7849 153.084V152.766C80.7849 151.218 81.2049 149.958 82.0451 148.986C82.8852 148.007 83.9965 147.517 85.3791 147.517C86.7682 147.517 87.8333 147.973 88.5741 148.886C89.3217 149.793 89.6954 151.026 89.6954 152.587V153.302H81.8367V151.903H87.949V151.694C87.949 150.94 87.7373 150.295 87.314 149.76C86.8906 149.217 86.2688 148.946 85.4485 148.946C84.4761 148.946 83.7484 149.313 83.2655 150.047C82.7893 150.775 82.5511 151.681 82.5511 152.766V153.084C82.5511 154.162 82.8058 155.068 83.3152 155.802C83.8245 156.537 84.6051 156.904 85.6569 156.904C86.3118 156.904 86.8741 156.762 87.3437 156.477C87.82 156.186 88.2037 155.842 88.4948 155.445L89.616 156.348C89.2985 156.838 88.8024 157.291 88.1276 157.708C87.4529 158.124 86.6293 158.333 85.6569 158.333C84.0891 158.333 82.8852 157.846 82.0451 156.874C81.2049 155.895 80.7849 154.632 80.7849 153.084ZM91.8685 158.045V147.805H93.4362L93.5057 149.134H93.5652C93.8298 148.698 94.1738 148.321 94.5972 148.003C95.0272 147.679 95.5398 147.517 96.1352 147.517C96.2807 147.517 96.4329 147.534 96.5916 147.567C96.7504 147.593 96.8628 147.62 96.929 147.646V149.253C96.7967 149.227 96.6578 149.207 96.5123 149.194C96.3667 149.181 96.208 149.174 96.036 149.174C95.4538 149.174 94.9544 149.33 94.5376 149.64C94.1209 149.951 93.81 150.342 93.6049 150.811V158.045H91.8685ZM102.396 162.173V160.694C102.568 160.747 102.757 160.79 102.962 160.823C103.167 160.856 103.369 160.873 103.567 160.873C104.024 160.873 104.421 160.688 104.758 160.317C105.102 159.947 105.466 159.183 105.849 158.025V158.015L102.019 147.805H103.716L106.187 154.651C106.279 154.909 106.359 155.151 106.425 155.376C106.498 155.601 106.561 155.809 106.613 156.001H106.673C106.733 155.809 106.799 155.601 106.871 155.376C106.944 155.151 107.024 154.906 107.11 154.641L109.451 147.805H111.099L106.891 159.434C106.554 160.373 106.124 161.098 105.601 161.607C105.085 162.117 104.44 162.371 103.666 162.371C103.402 162.371 103.167 162.355 102.962 162.322C102.764 162.288 102.575 162.239 102.396 162.173ZM111.743 153.084V152.766C111.743 151.218 112.177 149.958 113.043 148.986C113.917 148.007 115.081 147.517 116.536 147.517C117.998 147.517 119.162 148.007 120.029 148.986C120.902 149.958 121.339 151.218 121.339 152.766V153.084C121.339 154.632 120.902 155.895 120.029 156.874C119.162 157.846 117.998 158.333 116.536 158.333C115.081 158.333 113.917 157.846 113.043 156.874C112.177 155.895 111.743 154.632 111.743 153.084ZM113.52 152.766V153.084C113.52 154.155 113.771 155.058 114.274 155.792C114.783 156.527 115.537 156.894 116.536 156.894C117.542 156.894 118.296 156.527 118.798 155.792C119.308 155.058 119.563 154.152 119.563 153.074V152.766C119.563 151.688 119.308 150.782 118.798 150.047C118.296 149.313 117.542 148.946 116.536 148.946C115.537 148.946 114.783 149.313 114.274 150.047C113.771 150.782 113.52 151.688 113.52 152.766ZM123.482 154.433V147.805H125.218V154.453C125.218 155.293 125.404 155.892 125.774 156.249C126.145 156.6 126.674 156.775 127.362 156.775C127.944 156.775 128.456 156.616 128.9 156.299C129.35 155.974 129.703 155.561 129.961 155.058V147.805H131.698V158.045H130.12L130.051 156.705H130.001C129.631 157.182 129.174 157.559 128.632 157.837C128.096 158.108 127.501 158.243 126.846 158.243C125.82 158.243 125.003 157.952 124.395 157.37C123.786 156.781 123.482 155.802 123.482 154.433ZM134.556 158.045V147.805H136.123L136.193 149.134H136.252C136.517 148.698 136.861 148.321 137.284 148.003C137.714 147.679 138.227 147.517 138.822 147.517C138.968 147.517 139.12 147.534 139.279 147.567C139.438 147.593 139.55 147.62 139.616 147.646V149.253C139.484 149.227 139.345 149.207 139.199 149.194C139.054 149.181 138.895 149.174 138.723 149.174C138.141 149.174 137.642 149.33 137.225 149.64C136.808 149.951 136.497 150.342 136.292 150.811V158.045H134.556ZM145.421 153.084V152.766C145.421 151.271 145.808 150.037 146.582 149.065C147.356 148.093 148.391 147.606 149.688 147.606C150.409 147.606 151.021 147.735 151.523 147.993C152.033 148.245 152.436 148.582 152.734 149.005V142.913H154.47V158.045H152.903L152.833 156.695H152.774C152.509 157.119 152.109 157.483 151.573 157.787C151.037 158.091 150.409 158.243 149.688 158.243C148.391 158.243 147.356 157.757 146.582 156.785C145.808 155.806 145.421 154.572 145.421 153.084ZM147.197 153.084C147.197 154.142 147.425 155.028 147.882 155.743C148.345 156.457 149.069 156.815 150.055 156.815C150.716 156.815 151.279 156.633 151.742 156.269C152.205 155.905 152.535 155.491 152.734 155.028V150.791C152.535 150.335 152.205 149.928 151.742 149.571C151.279 149.214 150.716 149.035 150.055 149.035C149.069 149.035 148.345 149.392 147.882 150.107C147.425 150.821 147.197 151.708 147.197 152.766V153.084ZM156.713 153.084V152.766C156.713 151.218 157.133 149.958 157.973 148.986C158.813 148.007 159.924 147.517 161.307 147.517C162.696 147.517 163.761 147.973 164.502 148.886C165.25 149.793 165.623 151.026 165.623 152.587V153.302H157.765V151.903H163.877V151.694C163.877 150.94 163.665 150.295 163.242 149.76C162.819 149.217 162.197 148.946 161.376 148.946C160.404 148.946 159.676 149.313 159.193 150.047C158.717 150.775 158.479 151.681 158.479 152.766V153.084C158.479 154.162 158.734 155.068 159.243 155.802C159.752 156.537 160.533 156.904 161.585 156.904C162.24 156.904 162.802 156.762 163.272 156.477C163.748 156.186 164.132 155.842 164.423 155.445L165.544 156.348C165.226 156.838 164.73 157.291 164.056 157.708C163.381 158.124 162.557 158.333 161.585 158.333C160.017 158.333 158.813 157.846 157.973 156.874C157.133 155.895 156.713 154.632 156.713 153.084ZM167.171 155.009H168.908V155.078C168.908 155.687 169.126 156.143 169.563 156.447C169.999 156.745 170.581 156.894 171.309 156.894C172.037 156.894 172.609 156.752 173.026 156.467C173.442 156.183 173.651 155.802 173.651 155.326C173.651 154.856 173.479 154.499 173.135 154.254C172.791 154.003 172.07 153.745 170.972 153.481C169.874 153.216 169.007 152.852 168.372 152.389C167.743 151.919 167.429 151.264 167.429 150.424C167.429 149.584 167.773 148.89 168.461 148.341C169.149 147.792 170.069 147.517 171.22 147.517C172.377 147.517 173.31 147.792 174.018 148.341C174.726 148.89 175.08 149.64 175.08 150.593V150.662H173.353V150.553C173.353 150.044 173.178 149.65 172.827 149.373C172.477 149.088 171.941 148.946 171.22 148.946C170.505 148.946 169.979 149.078 169.642 149.343C169.311 149.601 169.146 149.935 169.146 150.345C169.146 150.742 169.334 151.056 169.711 151.288C170.089 151.519 170.823 151.767 171.914 152.032C173.012 152.296 173.859 152.67 174.454 153.153C175.056 153.636 175.357 154.327 175.357 155.227C175.357 156.133 175.02 156.877 174.345 157.459C173.671 158.042 172.659 158.333 171.309 158.333C169.96 158.333 168.931 158.038 168.223 157.45C167.522 156.861 167.171 156.07 167.171 155.078V155.009ZM176.151 149.144V147.805H181.966V149.144H176.151ZM177.987 155.475V148.589V148.321V145.086H179.723V155.475C179.723 155.978 179.816 156.328 180.001 156.527C180.186 156.725 180.481 156.824 180.884 156.824C181.063 156.824 181.238 156.808 181.41 156.775C181.589 156.735 181.767 156.682 181.946 156.616V158.045C181.781 158.124 181.566 158.19 181.301 158.243C181.037 158.303 180.749 158.333 180.438 158.333C179.69 158.333 179.095 158.108 178.652 157.658C178.209 157.201 177.987 156.474 177.987 155.475ZM183.931 158.045V147.805H185.667V158.045H183.931ZM183.712 144.6C183.712 144.302 183.805 144.054 183.99 143.856C184.182 143.65 184.453 143.548 184.804 143.548C185.154 143.548 185.422 143.65 185.608 143.856C185.799 144.054 185.895 144.302 185.895 144.6C185.895 144.897 185.799 145.149 185.608 145.354C185.422 145.552 185.154 145.652 184.804 145.652C184.453 145.652 184.182 145.552 183.99 145.354C183.805 145.149 183.712 144.897 183.712 144.6ZM188.614 158.045V147.805H190.182L190.251 149.134H190.311C190.675 148.658 191.125 148.284 191.66 148.013C192.203 147.742 192.805 147.606 193.466 147.606C194.492 147.606 195.309 147.897 195.917 148.48C196.526 149.062 196.83 150.037 196.83 151.407V158.045H195.094V151.407C195.094 150.567 194.905 149.968 194.528 149.611C194.158 149.247 193.632 149.065 192.95 149.065C192.362 149.065 191.842 149.227 191.392 149.551C190.943 149.869 190.595 150.279 190.351 150.782V158.045H188.614ZM199.013 155.038C199.013 154.006 199.42 153.203 200.233 152.627C201.054 152.045 202.099 151.754 203.369 151.754H205.711V151.01C205.711 150.381 205.549 149.875 205.225 149.492C204.9 149.108 204.345 148.916 203.558 148.916C202.77 148.916 202.201 149.078 201.851 149.402C201.507 149.72 201.335 150.1 201.335 150.543V150.613H199.608V150.524C199.608 149.717 199.966 149.015 200.68 148.42C201.401 147.818 202.373 147.517 203.597 147.517C204.821 147.517 205.767 147.808 206.435 148.39C207.11 148.966 207.447 149.839 207.447 151.01V155.663C207.447 156.093 207.477 156.5 207.537 156.884C207.603 157.261 207.695 157.595 207.814 157.886V158.045H206.147C206.055 157.88 205.969 157.665 205.889 157.4C205.817 157.135 205.77 156.871 205.75 156.606C205.506 157.03 205.112 157.407 204.57 157.737C204.034 158.068 203.343 158.233 202.496 158.233C201.51 158.233 200.683 157.959 200.015 157.41C199.347 156.861 199.013 156.07 199.013 155.038ZM200.749 154.949C200.749 155.544 200.921 156.007 201.265 156.338C201.609 156.669 202.139 156.834 202.853 156.834C203.581 156.834 204.239 156.586 204.828 156.09C205.416 155.587 205.711 155.052 205.711 154.483V153.004H203.567C202.635 153.004 201.93 153.18 201.454 153.53C200.984 153.881 200.749 154.354 200.749 154.949ZM208.817 149.144V147.805H214.631V149.144H208.817ZM210.652 155.475V148.589V148.321V145.086H212.389V155.475C212.389 155.978 212.481 156.328 212.667 156.527C212.852 156.725 213.146 156.824 213.55 156.824C213.728 156.824 213.904 156.808 214.076 156.775C214.254 156.735 214.433 156.682 214.611 156.616V158.045C214.446 158.124 214.231 158.19 213.966 158.243C213.702 158.303 213.414 158.333 213.103 158.333C212.356 158.333 211.76 158.108 211.317 157.658C210.874 157.201 210.652 156.474 210.652 155.475ZM216.596 158.045V147.805H218.332V158.045H216.596ZM216.378 144.6C216.378 144.302 216.47 144.054 216.655 143.856C216.847 143.65 217.118 143.548 217.469 143.548C217.82 143.548 218.088 143.65 218.273 143.856C218.465 144.054 218.561 144.302 218.561 144.6C218.561 144.897 218.465 145.149 218.273 145.354C218.088 145.552 217.82 145.652 217.469 145.652C217.118 145.652 216.847 145.552 216.655 145.354C216.47 145.149 216.378 144.897 216.378 144.6ZM220.654 153.084V152.766C220.654 151.218 221.088 149.958 221.954 148.986C222.827 148.007 223.992 147.517 225.447 147.517C226.909 147.517 228.073 148.007 228.94 148.986C229.813 149.958 230.249 151.218 230.249 152.766V153.084C230.249 154.632 229.813 155.895 228.94 156.874C228.073 157.846 226.909 158.333 225.447 158.333C223.992 158.333 222.827 157.846 221.954 156.874C221.088 155.895 220.654 154.632 220.654 153.084ZM222.43 152.766V153.084C222.43 154.155 222.682 155.058 223.185 155.792C223.694 156.527 224.448 156.894 225.447 156.894C226.452 156.894 227.207 156.527 227.709 155.792C228.219 155.058 228.473 154.152 228.473 153.074V152.766C228.473 151.688 228.219 150.782 227.709 150.047C227.207 149.313 226.452 148.946 225.447 148.946C224.448 148.946 223.694 149.313 223.185 150.047C222.682 150.782 222.43 151.688 222.43 152.766ZM232.492 158.045V147.805H234.06L234.129 149.134H234.189C234.553 148.658 235.002 148.284 235.538 148.013C236.081 147.742 236.683 147.606 237.344 147.606C238.369 147.606 239.186 147.897 239.795 148.48C240.404 149.062 240.708 150.037 240.708 151.407V158.045H238.971V151.407C238.971 150.567 238.783 149.968 238.406 149.611C238.035 149.247 237.509 149.065 236.828 149.065C236.239 149.065 235.72 149.227 235.27 149.551C234.82 149.869 234.473 150.279 234.228 150.782V158.045H232.492Z" fill="#BABABA"/>
<rect x="36.9566" y="121.439" width="353.087" height="60.2122" rx="30.1061" stroke="#EAEAEA" stroke-width="1.2701"/>
</g>
<path d="M37.6673 211.446V198.805H40.0028V204.014H45.4119V198.805H47.7388V211.446H45.4119V205.846H40.0028V211.446H37.6673ZM49.727 207.053V206.775C49.727 205.374 50.1438 204.252 50.9773 203.406C51.8165 202.561 52.9163 202.139 54.2765 202.139C55.6368 202.139 56.7336 202.561 57.5671 203.406C58.4064 204.252 58.8261 205.374 58.8261 206.775V207.053C58.8261 208.46 58.4064 209.585 57.5671 210.43C56.7336 211.276 55.6368 211.698 54.2765 211.698C52.9163 211.698 51.8165 211.276 50.9773 210.43C50.1438 209.585 49.727 208.46 49.727 207.053ZM52.0365 206.688V207.149C52.0365 208.017 52.2275 208.703 52.6095 209.206C52.9973 209.71 53.553 209.962 54.2765 209.962C55.0001 209.962 55.5528 209.71 55.9348 209.206C56.3169 208.703 56.5079 208.017 56.5079 207.149V206.688C56.5079 205.82 56.314 205.134 55.9262 204.631C55.5441 204.127 54.9943 203.875 54.2765 203.875C53.5588 203.875 53.006 204.127 52.6182 204.631C52.2304 205.134 52.0365 205.82 52.0365 206.688ZM59.6335 202.399H61.8735L63.3148 207.748C63.3727 207.973 63.419 208.173 63.4537 208.347C63.4942 208.52 63.5348 208.717 63.5753 208.937H63.6274C63.6621 208.717 63.6968 208.52 63.7316 208.347C63.7663 208.173 63.8184 207.973 63.8878 207.748L65.5288 202.399H67.6473L69.349 207.748C69.4185 207.979 69.4734 208.182 69.514 208.355C69.5545 208.529 69.595 208.726 69.6355 208.946H69.6876C69.7223 208.726 69.7571 208.529 69.7918 208.355C69.8265 208.176 69.8699 207.973 69.922 207.748L71.3546 202.399H73.3515L70.6166 211.446H68.5329L66.8138 206.115C66.7501 205.901 66.6893 205.684 66.6314 205.464C66.5793 205.238 66.5301 205.018 66.4838 204.804H66.4404C66.3999 205.018 66.3507 205.238 66.2928 205.464C66.2349 205.684 66.1742 205.901 66.1105 206.115L64.4522 211.446H62.3597L59.6335 202.399ZM78.969 211.446V202.399H81.0962L81.1569 203.493H81.2003C81.4898 203.094 81.8602 202.781 82.3117 202.556C82.7689 202.33 83.2667 202.217 83.805 202.217C84.4302 202.217 84.9714 202.347 85.4286 202.608C85.8859 202.862 86.2216 203.253 86.4358 203.78H86.4792C86.8091 203.259 87.2287 202.868 87.7381 202.608C88.2475 202.347 88.8002 202.217 89.3964 202.217C90.3168 202.217 91.049 202.492 91.5931 203.042C92.1371 203.592 92.4092 204.509 92.4092 205.794V211.446H90.1431V205.716C90.1431 205.114 90.0158 204.677 89.7611 204.405C89.5122 204.127 89.1475 203.988 88.6671 203.988C88.2504 203.988 87.8828 204.107 87.5645 204.344C87.2519 204.576 87.0059 204.891 86.8265 205.291V211.446H84.5604V205.733C84.5604 205.126 84.433 204.683 84.1784 204.405C83.9237 204.127 83.5503 203.988 83.0584 203.988C82.6416 203.988 82.2769 204.104 81.9644 204.335C81.6576 204.567 81.4145 204.885 81.2351 205.291V211.446H78.969ZM94.163 208.79C94.163 207.817 94.5421 207.076 95.3004 206.567C96.0586 206.057 97.0195 205.8 98.1829 205.794H100.067V205.238C100.067 204.787 99.9483 204.422 99.711 204.144C99.4795 203.867 99.0743 203.728 98.4955 203.728C97.9167 203.728 97.5028 203.843 97.2539 204.075C97.0108 204.307 96.8893 204.587 96.8893 204.917V205.03L94.6666 205.021V204.909C94.6666 204.127 95.0255 203.47 95.7432 202.938C96.4667 202.405 97.416 202.139 98.591 202.139C99.766 202.139 100.681 202.396 101.335 202.912C101.994 203.421 102.324 204.202 102.324 205.256V209.397C102.324 209.768 102.356 210.121 102.42 210.457C102.484 210.786 102.57 211.07 102.68 211.307V211.446H100.466C100.397 211.307 100.333 211.128 100.275 210.908C100.217 210.688 100.177 210.471 100.154 210.257C99.9686 210.61 99.63 210.925 99.138 211.203C98.646 211.475 98.0266 211.611 97.28 211.611C96.4002 211.611 95.6593 211.374 95.0573 210.899C94.4611 210.425 94.163 209.721 94.163 208.79ZM96.4291 208.607C96.4291 209.047 96.5535 209.397 96.8024 209.658C97.0571 209.912 97.4565 210.04 98.0006 210.04C98.562 210.04 99.0454 209.855 99.4505 209.484C99.8615 209.108 100.067 208.682 100.067 208.208V207.209H98.5128C97.8125 207.209 97.2886 207.331 96.9413 207.574C96.5998 207.817 96.4291 208.161 96.4291 208.607ZM104.634 211.446V202.399H106.77L106.822 203.476H106.874C107.134 203.1 107.499 202.796 107.968 202.564C108.437 202.333 108.958 202.217 109.531 202.217C110.451 202.217 111.195 202.48 111.762 203.007C112.335 203.528 112.622 204.428 112.622 205.707V211.446H110.364V205.681C110.364 205.068 110.228 204.634 109.956 204.379C109.69 204.118 109.308 203.988 108.81 203.988C108.393 203.988 108.014 204.104 107.673 204.335C107.337 204.567 107.079 204.882 106.9 205.282V211.446H104.634ZM114.367 215.049L114.384 213.339C114.529 213.385 114.691 213.423 114.87 213.452C115.05 213.481 115.223 213.495 115.391 213.495C115.791 213.495 116.135 213.359 116.424 213.087C116.72 212.815 116.995 212.257 117.249 211.412H117.197L113.724 202.399H115.982L117.926 207.887C118.002 208.106 118.062 208.309 118.109 208.494C118.155 208.68 118.199 208.862 118.239 209.041H118.291C118.337 208.862 118.384 208.68 118.43 208.494C118.482 208.309 118.546 208.106 118.621 207.887L120.479 202.399H122.537L118.829 212.523C118.5 213.414 118.068 214.089 117.536 214.546C117.003 215.003 116.349 215.232 115.574 215.232C115.313 215.232 115.087 215.217 114.896 215.188C114.705 215.159 114.529 215.113 114.367 215.049ZM127.451 207.062V206.784C127.451 205.447 127.807 204.353 128.519 203.502C129.231 202.651 130.169 202.226 131.332 202.226C131.922 202.226 132.432 202.333 132.86 202.547C133.288 202.755 133.624 203.03 133.867 203.372V198.197H136.116V211.446H133.989L133.937 210.344H133.893C133.685 210.703 133.355 211.006 132.903 211.255C132.452 211.498 131.928 211.62 131.332 211.62C130.134 211.62 129.187 211.195 128.493 210.344C127.798 209.493 127.451 208.399 127.451 207.062ZM129.76 207.131C129.76 207.936 129.934 208.598 130.281 209.119C130.634 209.635 131.167 209.892 131.879 209.892C132.365 209.892 132.776 209.759 133.112 209.493C133.453 209.227 133.702 208.917 133.858 208.564V205.273C133.702 204.914 133.459 204.605 133.129 204.344C132.799 204.084 132.382 203.953 131.879 203.953C131.173 203.953 130.643 204.214 130.29 204.735C129.937 205.25 129.76 205.907 129.76 206.706V207.131ZM137.939 208.79C137.939 207.817 138.318 207.076 139.077 206.567C139.835 206.057 140.796 205.8 141.959 205.794H143.843V205.238C143.843 204.787 143.724 204.422 143.487 204.144C143.256 203.867 142.85 203.728 142.272 203.728C141.693 203.728 141.279 203.843 141.03 204.075C140.787 204.307 140.665 204.587 140.665 204.917V205.03L138.443 205.021V204.909C138.443 204.127 138.802 203.47 139.519 202.938C140.243 202.405 141.192 202.139 142.367 202.139C143.542 202.139 144.457 202.396 145.111 202.912C145.771 203.421 146.101 204.202 146.101 205.256V209.397C146.101 209.768 146.132 210.121 146.196 210.457C146.26 210.786 146.347 211.07 146.457 211.307V211.446H144.243C144.173 211.307 144.109 211.128 144.052 210.908C143.994 210.688 143.953 210.471 143.93 210.257C143.745 210.61 143.406 210.925 142.914 211.203C142.422 211.475 141.803 211.611 141.056 211.611C140.176 211.611 139.435 211.374 138.833 210.899C138.237 210.425 137.939 209.721 137.939 208.79ZM140.205 208.607C140.205 209.047 140.33 209.397 140.579 209.658C140.833 209.912 141.233 210.04 141.777 210.04C142.338 210.04 142.822 209.855 143.227 209.484C143.638 209.108 143.843 208.682 143.843 208.208V207.209H142.289C141.589 207.209 141.065 207.331 140.718 207.574C140.376 207.817 140.205 208.161 140.205 208.607ZM147.794 215.049L147.811 213.339C147.956 213.385 148.118 213.423 148.297 213.452C148.477 213.481 148.65 213.495 148.818 213.495C149.217 213.495 149.562 213.359 149.851 213.087C150.146 212.815 150.421 212.257 150.676 211.412H150.624L147.151 202.399H149.408L151.353 207.887C151.429 208.106 151.489 208.309 151.536 208.494C151.582 208.68 151.625 208.862 151.666 209.041H151.718C151.764 208.862 151.811 208.68 151.857 208.494C151.909 208.309 151.973 208.106 152.048 207.887L153.906 202.399H155.964L152.256 212.523C151.926 213.414 151.495 214.089 150.963 214.546C150.43 215.003 149.776 215.232 149 215.232C148.74 215.232 148.514 215.217 148.323 215.188C148.132 215.159 147.956 215.113 147.794 215.049ZM156.528 208.651L158.742 208.659V208.772C158.742 209.229 158.901 209.568 159.219 209.788C159.538 210.002 159.966 210.109 160.504 210.109C161.043 210.109 161.457 210.005 161.746 209.797C162.035 209.588 162.18 209.313 162.18 208.972C162.18 208.63 162.041 208.376 161.763 208.208C161.486 208.034 160.86 207.84 159.888 207.626C158.852 207.406 158.073 207.076 157.552 206.636C157.037 206.191 156.78 205.6 156.78 204.865C156.78 204.037 157.113 203.378 157.778 202.886C158.45 202.388 159.353 202.139 160.487 202.139C161.622 202.139 162.527 202.394 163.205 202.903C163.888 203.412 164.229 204.107 164.229 204.987V205.073H162.024V204.952C162.024 204.57 161.897 204.275 161.642 204.066C161.393 203.852 161.005 203.745 160.478 203.745C159.963 203.745 159.587 203.838 159.35 204.023C159.112 204.202 158.994 204.437 158.994 204.726C158.994 205.016 159.138 205.247 159.428 205.421C159.717 205.589 160.354 205.78 161.338 205.994C162.374 206.214 163.147 206.544 163.656 206.984C164.165 207.418 164.42 208.025 164.42 208.807C164.42 209.698 164.09 210.404 163.43 210.925C162.771 211.441 161.798 211.698 160.513 211.698C159.24 211.698 158.256 211.438 157.561 210.917C156.872 210.396 156.528 209.669 156.528 208.737V208.651ZM170.567 211.446V202.399H172.833V211.446H170.567ZM170.359 199.76C170.359 199.413 170.475 199.12 170.706 198.883C170.938 198.64 171.268 198.518 171.696 198.518C172.13 198.518 172.463 198.637 172.694 198.874C172.926 199.112 173.042 199.407 173.042 199.76C173.042 200.113 172.926 200.411 172.694 200.654C172.463 200.892 172.13 201.01 171.696 201.01C171.262 201.01 170.929 200.892 170.697 200.654C170.472 200.411 170.359 200.113 170.359 199.76ZM174.622 208.651L176.836 208.659V208.772C176.836 209.229 176.995 209.568 177.313 209.788C177.632 210.002 178.06 210.109 178.598 210.109C179.137 210.109 179.551 210.005 179.84 209.797C180.129 209.588 180.274 209.313 180.274 208.972C180.274 208.63 180.135 208.376 179.857 208.208C179.579 208.034 178.954 207.84 177.982 207.626C176.946 207.406 176.167 207.076 175.646 206.636C175.131 206.191 174.874 205.6 174.874 204.865C174.874 204.037 175.206 203.378 175.872 202.886C176.544 202.388 177.447 202.139 178.581 202.139C179.715 202.139 180.621 202.394 181.299 202.903C181.982 203.412 182.323 204.107 182.323 204.987V205.073H180.118V204.952C180.118 204.57 179.99 204.275 179.736 204.066C179.487 203.852 179.099 203.745 178.572 203.745C178.057 203.745 177.681 203.838 177.444 204.023C177.206 204.202 177.088 204.437 177.088 204.726C177.088 205.016 177.232 205.247 177.522 205.421C177.811 205.589 178.448 205.78 179.432 205.994C180.468 206.214 181.241 206.544 181.75 206.984C182.259 207.418 182.514 208.025 182.514 208.807C182.514 209.698 182.184 210.404 181.524 210.925C180.864 211.441 179.892 211.698 178.607 211.698C177.334 211.698 176.35 211.438 175.655 210.917C174.966 210.396 174.622 209.669 174.622 208.737V208.651ZM188.132 215.049L188.149 213.339C188.294 213.385 188.456 213.423 188.635 213.452C188.815 213.481 188.988 213.495 189.156 213.495C189.555 213.495 189.9 213.359 190.189 213.087C190.484 212.815 190.759 212.257 191.014 211.412H190.962L187.489 202.399H189.746L191.691 207.887C191.767 208.106 191.827 208.309 191.874 208.494C191.92 208.68 191.963 208.862 192.004 209.041H192.056C192.102 208.862 192.149 208.68 192.195 208.494C192.247 208.309 192.311 208.106 192.386 207.887L194.244 202.399H196.302L192.594 212.523C192.264 213.414 191.833 214.089 191.301 214.546C190.768 215.003 190.114 215.232 189.338 215.232C189.078 215.232 188.852 215.217 188.661 215.188C188.47 215.159 188.294 215.113 188.132 215.049ZM196.77 207.053V206.775C196.77 205.374 197.187 204.252 198.021 203.406C198.86 202.561 199.96 202.139 201.32 202.139C202.68 202.139 203.777 202.561 204.611 203.406C205.45 204.252 205.869 205.374 205.869 206.775V207.053C205.869 208.46 205.45 209.585 204.611 210.43C203.777 211.276 202.68 211.698 201.32 211.698C199.96 211.698 198.86 211.276 198.021 210.43C197.187 209.585 196.77 208.46 196.77 207.053ZM199.08 206.688V207.149C199.08 208.017 199.271 208.703 199.653 209.206C200.041 209.71 200.596 209.962 201.32 209.962C202.043 209.962 202.596 209.71 202.978 209.206C203.36 208.703 203.551 208.017 203.551 207.149V206.688C203.551 205.82 203.357 205.134 202.97 204.631C202.588 204.127 202.038 203.875 201.32 203.875C200.602 203.875 200.049 204.127 199.662 204.631C199.274 205.134 199.08 205.82 199.08 206.688ZM207.58 208.06V202.399H209.837V208.086C209.837 208.74 209.976 209.2 210.254 209.467C210.532 209.727 210.911 209.857 211.391 209.857C211.826 209.857 212.208 209.736 212.537 209.493C212.873 209.25 213.128 208.943 213.302 208.572V202.399H215.559V211.446H213.432L213.38 210.361H213.328C213.044 210.755 212.668 211.064 212.199 211.29C211.736 211.516 211.212 211.629 210.627 211.629C209.724 211.629 208.989 211.354 208.422 210.804C207.861 210.254 207.58 209.339 207.58 208.06ZM217.868 211.446V202.399H220.013L220.065 203.459H220.117C220.314 203.105 220.583 202.802 220.925 202.547C221.272 202.286 221.668 202.156 222.114 202.156C222.236 202.156 222.36 202.171 222.487 202.2C222.621 202.223 222.716 202.246 222.774 202.269V204.231C222.664 204.208 222.548 204.191 222.427 204.179C222.305 204.162 222.175 204.153 222.036 204.153C221.602 204.153 221.217 204.278 220.881 204.526C220.545 204.775 220.299 205.088 220.143 205.464V211.446H217.868ZM227.341 204.066V202.399H232.819V204.066H227.341ZM228.782 208.894V203.25L228.791 203.016V200.151H231.031V208.816C231.031 209.244 231.109 209.539 231.265 209.701C231.421 209.863 231.653 209.944 231.96 209.944C232.099 209.944 232.238 209.93 232.377 209.901C232.521 209.866 232.66 209.823 232.793 209.771V211.438C232.654 211.507 232.46 211.568 232.212 211.62C231.963 211.672 231.691 211.698 231.395 211.698C230.602 211.698 229.969 211.472 229.494 211.021C229.019 210.569 228.782 209.86 228.782 208.894ZM234.347 211.446V202.399H236.492L236.544 203.459H236.596C236.793 203.105 237.062 202.802 237.404 202.547C237.751 202.286 238.147 202.156 238.593 202.156C238.715 202.156 238.839 202.171 238.966 202.2C239.1 202.223 239.195 202.246 239.253 202.269V204.231C239.143 204.208 239.027 204.191 238.906 204.179C238.784 204.162 238.654 204.153 238.515 204.153C238.081 204.153 237.696 204.278 237.36 204.526C237.024 204.775 236.778 205.088 236.622 205.464V211.446H234.347ZM240.703 211.446V202.399H242.969V211.446H240.703ZM240.494 199.76C240.494 199.413 240.61 199.12 240.842 198.883C241.073 198.64 241.403 198.518 241.832 198.518C242.266 198.518 242.598 198.637 242.83 198.874C243.062 199.112 243.177 199.407 243.177 199.76C243.177 200.113 243.062 200.411 242.83 200.654C242.598 200.892 242.266 201.01 241.832 201.01C241.397 201.01 241.065 200.892 240.833 200.654C240.607 200.411 240.494 200.113 240.494 199.76ZM245.304 215.075V202.399H247.414L247.475 203.476H247.518C247.721 203.117 248.057 202.819 248.526 202.582C249 202.339 249.533 202.217 250.123 202.217C251.281 202.217 252.21 202.637 252.91 203.476C253.616 204.309 253.969 205.409 253.969 206.775V207.053C253.969 208.419 253.619 209.522 252.919 210.361C252.224 211.2 251.31 211.62 250.175 211.62C249.585 211.62 249.061 211.519 248.604 211.316C248.152 211.113 247.808 210.836 247.571 210.483V215.075H245.304ZM247.571 208.538C247.715 208.897 247.964 209.212 248.317 209.484C248.67 209.756 249.093 209.892 249.585 209.892C250.291 209.892 250.812 209.643 251.148 209.145C251.489 208.642 251.66 207.976 251.66 207.149V206.688C251.66 205.855 251.489 205.192 251.148 204.7C250.812 204.202 250.288 203.953 249.576 203.953C249.073 203.953 248.65 204.087 248.309 204.353C247.973 204.619 247.727 204.926 247.571 205.273V208.538ZM257.408 210.344C257.408 209.985 257.529 209.681 257.772 209.432C258.021 209.177 258.374 209.05 258.832 209.05C259.295 209.05 259.648 209.177 259.891 209.432C260.134 209.681 260.255 209.985 260.255 210.344C260.255 210.697 260.134 211.001 259.891 211.255C259.648 211.51 259.295 211.637 258.832 211.637C258.38 211.637 258.03 211.51 257.781 211.255C257.532 211.001 257.408 210.697 257.408 210.344ZM255.228 202.217V201.939C255.228 200.897 255.579 200.087 256.279 199.508C256.979 198.924 257.911 198.631 259.075 198.631C260.255 198.631 261.193 198.932 261.888 199.534C262.588 200.13 262.938 200.946 262.938 201.983C262.938 202.781 262.736 203.459 262.33 204.014C261.931 204.57 261.494 205.039 261.019 205.421C260.545 205.803 260.244 206.179 260.116 206.549C259.995 206.914 259.934 207.282 259.934 207.652V207.756H257.633V207.643C257.633 206.949 257.729 206.37 257.92 205.907C258.117 205.444 258.504 204.955 259.083 204.44C259.57 204.011 259.943 203.635 260.203 203.311C260.47 202.987 260.603 202.564 260.603 202.043C260.603 201.505 260.478 201.097 260.229 200.819C259.98 200.536 259.59 200.394 259.057 200.394C258.542 200.394 258.151 200.53 257.885 200.802C257.625 201.068 257.494 201.465 257.494 201.991V202.217H255.228Z" fill="#201D23"/>
<g filter="url(#filter2_d_673_4718)">
<rect x="36.3215" y="228.607" width="354.357" height="61.4823" rx="30.7412" fill="white"/>
<path d="M53.1901 265.849V251.401H62.0013V252.89H54.9861V257.653H61.0785V259.141H54.9861V264.36H62.1006V265.849H53.1901ZM64.1645 265.849V255.608H65.7323L65.8017 256.938H65.8613C66.2251 256.462 66.6749 256.088 67.2107 255.817C67.7532 255.546 68.3551 255.41 69.0166 255.41C70.042 255.41 70.8589 255.701 71.4675 256.283C72.0761 256.865 72.3804 257.841 72.3804 259.21V265.849H70.644V259.21C70.644 258.37 70.4554 257.772 70.0784 257.414C69.7079 257.051 69.182 256.869 68.5007 256.869C67.9119 256.869 67.3926 257.031 66.9428 257.355C66.493 257.672 66.1457 258.083 65.9009 258.585V265.849H64.1645ZM73.7101 256.948V255.608H79.5247V256.948H73.7101ZM75.5457 263.279V256.392V256.124V252.89H77.2822V263.279C77.2822 263.781 77.3748 264.132 77.56 264.33C77.7453 264.529 78.0396 264.628 78.4431 264.628C78.6218 264.628 78.7971 264.612 78.969 264.579C79.1477 264.539 79.3263 264.486 79.5049 264.42V265.849C79.3395 265.928 79.1245 265.994 78.8599 266.047C78.5953 266.107 78.3075 266.136 77.9966 266.136C77.2491 266.136 76.6538 265.911 76.2106 265.462C75.7673 265.005 75.5457 264.278 75.5457 263.279ZM80.7849 260.887V260.57C80.7849 259.022 81.2049 257.762 82.0451 256.789C82.8852 255.81 83.9965 255.321 85.3791 255.321C86.7682 255.321 87.8333 255.777 88.5741 256.69C89.3217 257.596 89.6954 258.83 89.6954 260.391V261.106H81.8367V259.707H87.949V259.498C87.949 258.744 87.7373 258.099 87.314 257.563C86.8906 257.021 86.2688 256.75 85.4485 256.75C84.4761 256.75 83.7484 257.117 83.2655 257.851C82.7893 258.579 82.5511 259.485 82.5511 260.57V260.887C82.5511 261.966 82.8058 262.872 83.3152 263.606C83.8245 264.34 84.6051 264.708 85.6569 264.708C86.3118 264.708 86.8741 264.565 87.3437 264.281C87.82 263.99 88.2037 263.646 88.4948 263.249L89.616 264.152C89.2985 264.641 88.8024 265.095 88.1276 265.511C87.4529 265.928 86.6293 266.136 85.6569 266.136C84.0891 266.136 82.8852 265.65 82.0451 264.678C81.2049 263.699 80.7849 262.435 80.7849 260.887ZM91.8685 265.849V255.608H93.4362L93.5057 256.938H93.5652C93.8298 256.502 94.1738 256.124 94.5972 255.807C95.0272 255.483 95.5398 255.321 96.1352 255.321C96.2807 255.321 96.4329 255.337 96.5916 255.37C96.7504 255.397 96.8628 255.423 96.929 255.45V257.057C96.7967 257.031 96.6578 257.011 96.5123 256.998C96.3667 256.984 96.208 256.978 96.036 256.978C95.4538 256.978 94.9544 257.133 94.5376 257.444C94.1209 257.755 93.81 258.145 93.6049 258.615V265.849H91.8685ZM102.396 269.976V268.498C102.568 268.551 102.757 268.594 102.962 268.627C103.167 268.66 103.369 268.677 103.567 268.677C104.024 268.677 104.421 268.491 104.758 268.121C105.102 267.75 105.466 266.986 105.849 265.829V265.819L102.019 255.608H103.716L106.187 262.455C106.279 262.713 106.359 262.955 106.425 263.179C106.498 263.404 106.561 263.613 106.613 263.805H106.673C106.733 263.613 106.799 263.404 106.871 263.179C106.944 262.955 107.024 262.71 107.11 262.445L109.451 255.608H111.099L106.891 267.238C106.554 268.177 106.124 268.901 105.601 269.411C105.085 269.92 104.44 270.175 103.666 270.175C103.402 270.175 103.167 270.158 102.962 270.125C102.764 270.092 102.575 270.043 102.396 269.976ZM111.743 260.887V260.57C111.743 259.022 112.177 257.762 113.043 256.789C113.917 255.81 115.081 255.321 116.536 255.321C117.998 255.321 119.162 255.81 120.029 256.789C120.902 257.762 121.339 259.022 121.339 260.57V260.887C121.339 262.435 120.902 263.699 120.029 264.678C119.162 265.65 117.998 266.136 116.536 266.136C115.081 266.136 113.917 265.65 113.043 264.678C112.177 263.699 111.743 262.435 111.743 260.887ZM113.52 260.57V260.887C113.52 261.959 113.771 262.862 114.274 263.596C114.783 264.33 115.537 264.698 116.536 264.698C117.542 264.698 118.296 264.33 118.798 263.596C119.308 262.862 119.563 261.956 119.563 260.877V260.57C119.563 259.492 119.308 258.585 118.798 257.851C118.296 257.117 117.542 256.75 116.536 256.75C115.537 256.75 114.783 257.117 114.274 257.851C113.771 258.585 113.52 259.492 113.52 260.57ZM123.482 262.237V255.608H125.218V262.257C125.218 263.097 125.404 263.695 125.774 264.053C126.145 264.403 126.674 264.579 127.362 264.579C127.944 264.579 128.456 264.42 128.9 264.102C129.35 263.778 129.703 263.365 129.961 262.862V255.608H131.698V265.849H130.12L130.051 264.509H130.001C129.631 264.985 129.174 265.362 128.632 265.64C128.096 265.911 127.501 266.047 126.846 266.047C125.82 266.047 125.003 265.756 124.395 265.174C123.786 264.585 123.482 263.606 123.482 262.237ZM134.556 265.849V255.608H136.123L136.193 256.938H136.252C136.517 256.502 136.861 256.124 137.284 255.807C137.714 255.483 138.227 255.321 138.822 255.321C138.968 255.321 139.12 255.337 139.279 255.37C139.438 255.397 139.55 255.423 139.616 255.45V257.057C139.484 257.031 139.345 257.011 139.199 256.998C139.054 256.984 138.895 256.978 138.723 256.978C138.141 256.978 137.642 257.133 137.225 257.444C136.808 257.755 136.497 258.145 136.292 258.615V265.849H134.556ZM144.617 256.948V255.608H150.432V256.948H144.617ZM146.453 263.279V256.392V256.124V252.89H148.189V263.279C148.189 263.781 148.282 264.132 148.467 264.33C148.652 264.529 148.947 264.628 149.35 264.628C149.529 264.628 149.704 264.612 149.876 264.579C150.055 264.539 150.233 264.486 150.412 264.42V265.849C150.247 265.928 150.032 265.994 149.767 266.047C149.502 266.107 149.215 266.136 148.904 266.136C148.156 266.136 147.561 265.911 147.118 265.462C146.674 265.005 146.453 264.278 146.453 263.279ZM152.317 265.849V255.608H153.885L153.954 256.938H154.014C154.278 256.502 154.622 256.124 155.046 255.807C155.476 255.483 155.988 255.321 156.584 255.321C156.729 255.321 156.882 255.337 157.04 255.37C157.199 255.397 157.312 255.423 157.378 255.45V257.057C157.245 257.031 157.106 257.011 156.961 256.998C156.815 256.984 156.657 256.978 156.485 256.978C155.902 256.978 155.403 257.133 154.986 257.444C154.57 257.755 154.259 258.145 154.054 258.615V265.849H152.317ZM159.124 265.849V255.608H160.86V265.849H159.124ZM158.906 252.403C158.906 252.106 158.998 251.858 159.184 251.659C159.375 251.454 159.647 251.352 159.997 251.352C160.348 251.352 160.616 251.454 160.801 251.659C160.993 251.858 161.089 252.106 161.089 252.403C161.089 252.701 160.993 252.953 160.801 253.158C160.616 253.356 160.348 253.455 159.997 253.455C159.647 253.455 159.375 253.356 159.184 253.158C158.998 252.953 158.906 252.701 158.906 252.403ZM163.808 270.016V255.608H165.375L165.445 256.958H165.504C165.762 256.528 166.162 256.164 166.705 255.866C167.254 255.562 167.886 255.41 168.6 255.41C169.897 255.41 170.929 255.893 171.696 256.859C172.47 257.825 172.857 259.058 172.857 260.56V260.877C172.857 262.386 172.47 263.626 171.696 264.598C170.929 265.564 169.897 266.047 168.6 266.047C167.886 266.047 167.274 265.918 166.764 265.66C166.255 265.395 165.848 265.052 165.544 264.628V270.016H163.808ZM165.544 262.832C165.749 263.295 166.08 263.709 166.536 264.072C166.999 264.436 167.562 264.618 168.223 264.618C169.209 264.618 169.93 264.261 170.386 263.547C170.849 262.826 171.081 261.936 171.081 260.877V260.56C171.081 259.501 170.849 258.618 170.386 257.911C169.93 257.196 169.209 256.839 168.223 256.839C167.562 256.839 166.999 257.021 166.536 257.385C166.08 257.742 165.749 258.152 165.544 258.615V262.832ZM179.237 260.887V260.57C179.237 259.075 179.624 257.841 180.398 256.869C181.172 255.896 182.207 255.41 183.504 255.41C184.225 255.41 184.837 255.539 185.34 255.797C185.849 256.048 186.253 256.386 186.55 256.809V250.717H188.287V265.849H186.719L186.649 264.499H186.59C186.325 264.923 185.925 265.286 185.389 265.591C184.853 265.895 184.225 266.047 183.504 266.047C182.207 266.047 181.172 265.561 180.398 264.588C179.624 263.609 179.237 262.376 179.237 260.887ZM181.013 260.887C181.013 261.946 181.242 262.832 181.698 263.547C182.161 264.261 182.885 264.618 183.871 264.618C184.533 264.618 185.095 264.436 185.558 264.072C186.021 263.709 186.352 263.295 186.55 262.832V258.595C186.352 258.139 186.021 257.732 185.558 257.375C185.095 257.017 184.533 256.839 183.871 256.839C182.885 256.839 182.161 257.196 181.698 257.911C181.242 258.625 181.013 259.511 181.013 260.57V260.887ZM191.055 262.237V255.608H192.792V262.257C192.792 263.097 192.977 263.695 193.347 264.053C193.718 264.403 194.247 264.579 194.935 264.579C195.517 264.579 196.03 264.42 196.473 264.102C196.923 263.778 197.277 263.365 197.535 262.862V255.608H199.271V265.849H197.693L197.624 264.509H197.574C197.204 264.985 196.747 265.362 196.205 265.64C195.669 265.911 195.074 266.047 194.419 266.047C193.393 266.047 192.577 265.756 191.968 265.174C191.359 264.585 191.055 263.606 191.055 262.237ZM202.129 265.849V255.608H203.696L203.766 256.938H203.825C204.09 256.502 204.434 256.124 204.857 255.807C205.287 255.483 205.8 255.321 206.395 255.321C206.541 255.321 206.693 255.337 206.852 255.37C207.011 255.397 207.123 255.423 207.189 255.45V257.057C207.057 257.031 206.918 257.011 206.772 256.998C206.627 256.984 206.468 256.978 206.296 256.978C205.714 256.978 205.215 257.133 204.798 257.444C204.381 257.755 204.07 258.145 203.865 258.615V265.849H202.129ZM207.884 262.842C207.884 261.81 208.291 261.006 209.104 260.431C209.925 259.849 210.97 259.558 212.24 259.558H214.582V258.813C214.582 258.185 214.42 257.679 214.095 257.295C213.771 256.912 213.216 256.72 212.428 256.72C211.641 256.72 211.072 256.882 210.722 257.206C210.378 257.524 210.206 257.904 210.206 258.347V258.417H208.479V258.327C208.479 257.52 208.836 256.819 209.551 256.224C210.272 255.622 211.244 255.321 212.468 255.321C213.692 255.321 214.638 255.612 215.306 256.194C215.981 256.769 216.318 257.643 216.318 258.813V263.467C216.318 263.897 216.348 264.304 216.407 264.688C216.474 265.065 216.566 265.399 216.685 265.69V265.849H215.018C214.926 265.683 214.84 265.468 214.76 265.204C214.687 264.939 214.641 264.674 214.621 264.41C214.377 264.833 213.983 265.21 213.441 265.541C212.905 265.872 212.213 266.037 211.367 266.037C210.381 266.037 209.554 265.763 208.886 265.214C208.218 264.665 207.884 263.874 207.884 262.842ZM209.62 262.753C209.62 263.348 209.792 263.811 210.136 264.142C210.48 264.473 211.009 264.638 211.724 264.638C212.452 264.638 213.11 264.39 213.698 263.894C214.287 263.391 214.582 262.855 214.582 262.286V260.808H212.438C211.506 260.808 210.801 260.983 210.325 261.334C209.855 261.684 209.62 262.157 209.62 262.753ZM217.687 256.948V255.608H223.502V256.948H217.687ZM219.523 263.279V256.392V256.124V252.89H221.26V263.279C221.26 263.781 221.352 264.132 221.537 264.33C221.723 264.529 222.017 264.628 222.42 264.628C222.599 264.628 222.774 264.612 222.946 264.579C223.125 264.539 223.304 264.486 223.482 264.42V265.849C223.317 265.928 223.102 265.994 222.837 266.047C222.573 266.107 222.285 266.136 221.974 266.136C221.226 266.136 220.631 265.911 220.188 265.462C219.745 265.005 219.523 264.278 219.523 263.279ZM225.467 265.849V255.608H227.203V265.849H225.467ZM225.248 252.403C225.248 252.106 225.341 251.858 225.526 251.659C225.718 251.454 225.989 251.352 226.34 251.352C226.691 251.352 226.958 251.454 227.144 251.659C227.335 251.858 227.431 252.106 227.431 252.403C227.431 252.701 227.335 252.953 227.144 253.158C226.958 253.356 226.691 253.455 226.34 253.455C225.989 253.455 225.718 253.356 225.526 253.158C225.341 252.953 225.248 252.701 225.248 252.403ZM229.525 260.887V260.57C229.525 259.022 229.958 257.762 230.825 256.789C231.698 255.81 232.862 255.321 234.318 255.321C235.78 255.321 236.944 255.81 237.81 256.789C238.684 257.762 239.12 259.022 239.12 260.57V260.887C239.12 262.435 238.684 263.699 237.81 264.678C236.944 265.65 235.78 266.136 234.318 266.136C232.862 266.136 231.698 265.65 230.825 264.678C229.958 263.699 229.525 262.435 229.525 260.887ZM231.301 260.57V260.887C231.301 261.959 231.553 262.862 232.055 263.596C232.565 264.33 233.319 264.698 234.318 264.698C235.323 264.698 236.077 264.33 236.58 263.596C237.089 262.862 237.344 261.956 237.344 260.877V260.57C237.344 259.492 237.089 258.585 236.58 257.851C236.077 257.117 235.323 256.75 234.318 256.75C233.319 256.75 232.565 257.117 232.055 257.851C231.553 258.585 231.301 259.492 231.301 260.57ZM241.363 265.849V255.608H242.931L243 256.938H243.06C243.423 256.462 243.873 256.088 244.409 255.817C244.951 255.546 245.553 255.41 246.215 255.41C247.24 255.41 248.057 255.701 248.666 256.283C249.274 256.865 249.579 257.841 249.579 259.21V265.849H247.842V259.21C247.842 258.37 247.654 257.772 247.277 257.414C246.906 257.051 246.38 256.869 245.699 256.869C245.11 256.869 244.591 257.031 244.141 257.355C243.691 257.672 243.344 258.083 243.099 258.585V265.849H241.363Z" fill="#BABABA"/>
<rect x="36.9566" y="229.242" width="353.087" height="60.2122" rx="30.1061" stroke="#EAEAEA" stroke-width="1.2701"/>
</g>
</g>
<g filter="url(#filter3_d_673_4718)">
<rect x="36.3215" y="320.572" width="354.357" height="61.4823" rx="30.7412" fill="#35977D" shape-rendering="crispEdges"/>
<path d="M147.425 353.745V353.408H150.531V353.676C150.531 354.377 150.753 354.906 151.196 355.263C151.639 355.614 152.258 355.789 153.051 355.789C153.839 355.789 154.444 355.627 154.867 355.303C155.291 354.972 155.502 354.536 155.502 353.993C155.502 353.438 155.297 353.008 154.887 352.703C154.477 352.399 153.594 352.065 152.238 351.701C150.723 351.298 149.579 350.755 148.805 350.074C148.031 349.386 147.64 348.453 147.634 347.276C147.634 345.999 148.117 344.984 149.082 344.229C150.048 343.469 151.341 343.088 152.962 343.088C154.583 343.088 155.883 343.475 156.862 344.249C157.841 345.017 158.33 346.052 158.33 347.355V347.663H155.274V347.424C155.274 346.816 155.079 346.33 154.689 345.966C154.305 345.602 153.736 345.42 152.982 345.42C152.221 345.42 151.662 345.566 151.305 345.857C150.948 346.148 150.769 346.541 150.769 347.038C150.769 347.527 150.968 347.901 151.365 348.159C151.768 348.417 152.648 348.731 154.004 349.101C155.492 349.505 156.634 350.057 157.427 350.758C158.221 351.46 158.618 352.459 158.618 353.755C158.618 355.124 158.109 356.189 157.09 356.95C156.078 357.711 154.738 358.091 153.071 358.091C151.404 358.091 150.045 357.721 148.993 356.98C147.948 356.239 147.425 355.161 147.425 353.745ZM159.253 349.736V347.544H165.733V349.736H159.253ZM160.791 354.737V348.556L160.811 348.298V344.993H163.778V354.559C163.778 355.062 163.867 355.402 164.046 355.581C164.224 355.759 164.472 355.849 164.79 355.849C164.949 355.849 165.104 355.832 165.256 355.799C165.408 355.766 165.557 355.72 165.703 355.66V357.794C165.544 357.873 165.316 357.942 165.018 358.002C164.72 358.062 164.39 358.091 164.026 358.091C163.04 358.091 162.253 357.823 161.664 357.288C161.082 356.745 160.791 355.895 160.791 354.737ZM166.834 354.797C166.834 353.666 167.271 352.812 168.144 352.237C169.024 351.655 170.135 351.364 171.478 351.364H173.542V350.768C173.542 350.312 173.423 349.945 173.184 349.667C172.953 349.383 172.543 349.24 171.954 349.24C171.372 349.24 170.955 349.359 170.704 349.598C170.452 349.829 170.327 350.117 170.327 350.461V350.62H167.39V350.451C167.39 349.525 167.823 348.761 168.69 348.159C169.563 347.557 170.697 347.256 172.093 347.256C173.502 347.256 174.597 347.544 175.377 348.119C176.165 348.695 176.558 349.591 176.558 350.808V355.502C176.558 355.918 176.595 356.315 176.667 356.692C176.747 357.069 176.853 357.39 176.985 357.655V357.813H174.018C173.939 357.661 173.866 357.463 173.8 357.218C173.74 356.973 173.697 356.732 173.671 356.494C173.472 356.884 173.085 357.235 172.51 357.546C171.941 357.85 171.233 358.002 170.386 358.002C169.368 358.002 168.521 357.737 167.846 357.208C167.171 356.672 166.834 355.869 166.834 354.797ZM169.841 354.539C169.841 354.989 169.97 355.349 170.228 355.621C170.486 355.885 170.892 356.017 171.448 356.017C172.043 356.017 172.539 355.829 172.936 355.452C173.34 355.068 173.542 354.612 173.542 354.083V353.13H171.984C171.256 353.13 170.717 353.249 170.366 353.487C170.016 353.725 169.841 354.076 169.841 354.539ZM179.049 357.813V347.544H181.946L182.006 348.705H182.055C182.267 348.308 182.561 347.97 182.938 347.692C183.315 347.415 183.739 347.276 184.208 347.276C184.354 347.276 184.5 347.292 184.645 347.325C184.791 347.352 184.893 347.378 184.953 347.405V349.945C184.84 349.912 184.715 349.889 184.576 349.875C184.437 349.856 184.285 349.846 184.119 349.846C183.669 349.846 183.259 349.981 182.889 350.252C182.525 350.524 182.257 350.868 182.085 351.284V357.813H179.049ZM185.727 349.736V347.544H192.206V349.736H185.727ZM187.265 354.737V348.556L187.285 348.298V344.993H190.251V354.559C190.251 355.062 190.341 355.402 190.519 355.581C190.698 355.759 190.946 355.849 191.263 355.849C191.422 355.849 191.578 355.832 191.73 355.799C191.882 355.766 192.031 355.72 192.176 355.66V357.794C192.018 357.873 191.789 357.942 191.492 358.002C191.194 358.062 190.863 358.091 190.499 358.091C189.514 358.091 188.727 357.823 188.138 357.288C187.556 356.745 187.265 355.895 187.265 354.737ZM198.755 361.961V347.544H201.593L201.652 348.714H201.702C201.92 348.318 202.294 347.987 202.823 347.722C203.359 347.458 203.955 347.325 204.609 347.325C205.932 347.325 206.997 347.795 207.804 348.734C208.612 349.667 209.015 350.924 209.015 352.505V352.822C209.015 354.397 208.615 355.657 207.814 356.603C207.021 357.542 205.979 358.012 204.689 358.012C204.034 358.012 203.448 357.903 202.932 357.684C202.417 357.466 202.03 357.165 201.772 356.782V361.961H198.755ZM201.772 354.37C201.917 354.747 202.172 355.078 202.536 355.363C202.906 355.64 203.343 355.779 203.845 355.779C204.553 355.779 205.079 355.535 205.423 355.045C205.774 354.549 205.949 353.861 205.949 352.981V352.356C205.949 351.476 205.774 350.795 205.423 350.312C205.079 349.822 204.55 349.578 203.835 349.578C203.313 349.578 202.876 349.713 202.526 349.985C202.182 350.256 201.93 350.577 201.772 350.947V354.37ZM210.94 357.813V342.731H213.966V357.813H210.94ZM215.931 354.797C215.931 353.666 216.368 352.812 217.241 352.237C218.121 351.655 219.232 351.364 220.575 351.364H222.639V350.768C222.639 350.312 222.52 349.945 222.282 349.667C222.05 349.383 221.64 349.24 221.051 349.24C220.469 349.24 220.052 349.359 219.801 349.598C219.55 349.829 219.424 350.117 219.424 350.461V350.62H216.487V350.451C216.487 349.525 216.92 348.761 217.787 348.159C218.66 347.557 219.794 347.256 221.19 347.256C222.599 347.256 223.694 347.544 224.475 348.119C225.262 348.695 225.655 349.591 225.655 350.808V355.502C225.655 355.918 225.692 356.315 225.764 356.692C225.844 357.069 225.95 357.39 226.082 357.655V357.813H223.115C223.036 357.661 222.963 357.463 222.897 357.218C222.837 356.973 222.794 356.732 222.768 356.494C222.569 356.884 222.182 357.235 221.607 357.546C221.038 357.85 220.33 358.002 219.483 358.002C218.465 358.002 217.618 357.737 216.943 357.208C216.269 356.672 215.931 355.869 215.931 354.797ZM218.938 354.539C218.938 354.989 219.067 355.349 219.325 355.621C219.583 355.885 219.989 356.017 220.545 356.017C221.141 356.017 221.637 355.829 222.034 355.452C222.437 355.068 222.639 354.612 222.639 354.083V353.13H221.081C220.353 353.13 219.814 353.249 219.464 353.487C219.113 353.725 218.938 354.076 218.938 354.539ZM228.146 357.813V347.544H231.023L231.083 348.734H231.133C231.397 348.324 231.794 347.987 232.323 347.722C232.853 347.458 233.448 347.325 234.109 347.325C235.161 347.325 236.018 347.623 236.679 348.218C237.347 348.814 237.682 349.856 237.682 351.344V357.813H234.675V351.354C234.675 350.719 234.536 350.272 234.258 350.014C233.987 349.756 233.603 349.627 233.107 349.627C232.697 349.627 232.313 349.746 231.956 349.985C231.606 350.223 231.341 350.553 231.162 350.977V357.813H228.146ZM240.033 357.813V347.544H242.911L242.97 348.734H243.02C243.285 348.324 243.681 347.987 244.211 347.722C244.74 347.458 245.335 347.325 245.997 347.325C247.048 347.325 247.905 347.623 248.567 348.218C249.235 348.814 249.569 349.856 249.569 351.344V357.813H246.562V351.354C246.562 350.719 246.423 350.272 246.146 350.014C245.874 349.756 245.491 349.627 244.995 349.627C244.584 349.627 244.201 349.746 243.843 349.985C243.493 350.223 243.228 350.553 243.05 350.977V357.813H240.033ZM251.96 357.813V347.544H254.987V357.813H251.96ZM251.712 344.597C251.712 344.14 251.864 343.76 252.169 343.455C252.473 343.145 252.906 342.989 253.468 342.989C254.037 342.989 254.471 343.145 254.768 343.455C255.073 343.76 255.225 344.14 255.225 344.597C255.225 345.046 255.073 345.43 254.768 345.748C254.464 346.058 254.031 346.214 253.468 346.214C252.9 346.214 252.463 346.058 252.159 345.748C251.861 345.43 251.712 345.046 251.712 344.597ZM257.457 357.813V347.544H260.335L260.394 348.734H260.444C260.709 348.324 261.106 347.987 261.635 347.722C262.164 347.458 262.759 347.325 263.421 347.325C264.473 347.325 265.329 347.623 265.991 348.218C266.659 348.814 266.993 349.856 266.993 351.344V357.813H263.986V351.354C263.986 350.719 263.848 350.272 263.57 350.014C263.298 349.756 262.915 349.627 262.419 349.627C262.009 349.627 261.625 349.746 261.268 349.985C260.917 350.223 260.652 350.553 260.474 350.977V357.813H257.457ZM269.404 360.77L270.575 358.895C270.82 359.133 271.223 359.365 271.786 359.59C272.348 359.821 272.953 359.937 273.601 359.937C274.316 359.937 274.901 359.719 275.358 359.282C275.821 358.845 276.052 358.171 276.052 357.258V356.702C275.794 357.106 275.421 357.423 274.931 357.655C274.448 357.88 273.866 357.992 273.185 357.992C271.875 357.992 270.817 357.522 270.009 356.583C269.202 355.637 268.799 354.387 268.799 352.832V352.515C268.799 350.96 269.196 349.71 269.99 348.764C270.79 347.818 271.855 347.345 273.185 347.345C273.833 347.345 274.418 347.477 274.941 347.742C275.464 348.007 275.837 348.341 276.062 348.744H276.122L276.171 347.544H279.049V357.099C279.049 358.726 278.559 359.977 277.58 360.85C276.601 361.723 275.354 362.16 273.84 362.16C272.92 362.16 272.077 362.024 271.309 361.753C270.542 361.488 269.907 361.161 269.404 360.77ZM271.865 352.951C271.865 353.792 272.044 354.473 272.401 354.995C272.765 355.511 273.317 355.769 274.058 355.769C274.547 355.769 274.964 355.627 275.308 355.343C275.652 355.058 275.897 354.734 276.042 354.37V351.026C275.89 350.61 275.639 350.266 275.288 349.994C274.938 349.717 274.514 349.578 274.018 349.578C273.297 349.578 272.758 349.839 272.401 350.362C272.044 350.884 271.865 351.566 271.865 352.406V352.951Z" fill="white"/>
</g>
<rect x="16.635" y="13.635" width="393.73" height="388.106" rx="14.6061" stroke="#F0F0F0" stroke-width="1.2701" shape-rendering="crispEdges"/>
</g>
<defs>
<filter id="filter0_d_673_4718" x="0.758842" y="0.299035" width="425.482" height="419.858" filterUnits="userSpaceOnUse" color-interpolation-filters="sRGB">
<feFlood flood-opacity="0" result="BackgroundImageFix"/>
<feColorMatrix in="SourceAlpha" type="matrix" values="0 0 0 0 0 0 0 0 0 0 0 0 0 0 0 0 0 0 127 0" result="hardAlpha"/>
<feOffset dy="2.54019"/>
<feGaussianBlur stdDeviation="7.62058"/>
<feComposite in2="hardAlpha" operator="out"/>
<feColorMatrix type="matrix" values="0 0 0 0 0 0 0 0 0 0 0 0 0 0 0 0 0 0 0.16 0"/>
<feBlend mode="normal" in2="BackgroundImageFix" result="effect1_dropShadow_673_4718"/>
<feBlend mode="normal" in="SourceGraphic" in2="effect1_dropShadow_673_4718" result="shape"/>
</filter>
<filter id="filter1_d_673_4718" x="26.1608" y="113.183" width="374.678" height="81.804" filterUnits="userSpaceOnUse" color-interpolation-filters="sRGB">
<feFlood flood-opacity="0" result="BackgroundImageFix"/>
<feColorMatrix in="SourceAlpha" type="matrix" values="0 0 0 0 0 0 0 0 0 0 0 0 0 0 0 0 0 0 127 0" result="hardAlpha"/>
<feOffset dy="2.54019"/>
<feGaussianBlur stdDeviation="5.08039"/>
<feComposite in2="hardAlpha" operator="out"/>
<feColorMatrix type="matrix" values="0 0 0 0 0 0 0 0 0 0 0 0 0 0 0 0 0 0 0.04 0"/>
<feBlend mode="normal" in2="BackgroundImageFix" result="effect1_dropShadow_673_4718"/>
<feBlend mode="normal" in="SourceGraphic" in2="effect1_dropShadow_673_4718" result="shape"/>
</filter>
<filter id="filter2_d_673_4718" x="26.1608" y="220.987" width="374.678" height="81.804" filterUnits="userSpaceOnUse" color-interpolation-filters="sRGB">
<feFlood flood-opacity="0" result="BackgroundImageFix"/>
<feColorMatrix in="SourceAlpha" type="matrix" values="0 0 0 0 0 0 0 0 0 0 0 0 0 0 0 0 0 0 127 0" result="hardAlpha"/>
<feOffset dy="2.54019"/>
<feGaussianBlur stdDeviation="5.08039"/>
<feComposite in2="hardAlpha" operator="out"/>
<feColorMatrix type="matrix" values="0 0 0 0 0 0 0 0 0 0 0 0 0 0 0 0 0 0 0.04 0"/>
<feBlend mode="normal" in2="BackgroundImageFix" result="effect1_dropShadow_673_4718"/>
<feBlend mode="normal" in="SourceGraphic" in2="effect1_dropShadow_673_4718" result="shape"/>
</filter>
<filter id="filter3_d_673_4718" x="26.1608" y="312.952" width="374.678" height="81.804" filterUnits="userSpaceOnUse" color-interpolation-filters="sRGB">
<feFlood flood-opacity="0" result="BackgroundImageFix"/>
<feColorMatrix in="SourceAlpha" type="matrix" values="0 0 0 0 0 0 0 0 0 0 0 0 0 0 0 0 0 0 127 0" result="hardAlpha"/>
<feOffset dy="2.54019"/>
<feGaussianBlur stdDeviation="5.08039"/>
<feComposite in2="hardAlpha" operator="out"/>
<feColorMatrix type="matrix" values="0 0 0 0 0 0 0 0 0 0 0 0 0 0 0 0 0 0 0.04 0"/>
<feBlend mode="normal" in2="BackgroundImageFix" result="effect1_dropShadow_673_4718"/>
<feBlend mode="normal" in="SourceGraphic" in2="effect1_dropShadow_673_4718" result="shape"/>
</filter>
<clipPath id="clip0_673_4718">
<rect x="36.3215" y="84.6426" width="354.357" height="205.447" rx="15.2412" fill="white"/>
</clipPath>
</defs>
</svg>
