<svg width="167" height="40" viewBox="0 0 167 40" fill="none" xmlns="http://www.w3.org/2000/svg">
<g clip-path="url(#clip0_661_1838)">
<path fill-rule="evenodd" clip-rule="evenodd" d="M25.16 3.72453C25.16 1.06473 21.9283 -0.249439 20.072 1.65553L2.62119 19.5646C0.790813 21.443 2.12176 24.5983 4.74451 24.5983H15.8408V36.3943C15.8408 39.0541 19.0726 40.3683 20.9288 38.4633L38.3797 20.5542C40.21 18.6758 38.8791 15.5206 36.2563 15.5206H25.16V3.72453ZM25.16 15.5206H15.8408V24.5983H20.16C22.9215 24.5983 25.16 22.3597 25.16 19.5983V15.5206Z" fill="#1B1B1B"/>
<path d="M51.2037 27L47.7503 9.98999H51.717L53.677 21.5867L53.957 23.4533H54.1203L56.9903 9.98999H61.1903L64.037 23.4533H64.2237L64.4803 21.8433L66.3937 9.98999H70.337L66.977 27H61.7737L59.4403 16.4533L59.1603 15.0767H59.0203L58.7403 16.4533L56.407 27H51.2037ZM76.2936 27.2333C74.6291 27.2333 73.4158 26.6733 72.6536 25.5533C71.8913 24.4178 71.5102 22.9089 71.5102 21.0267V20.49C71.5102 18.2967 71.938 16.71 72.7936 15.73C73.6647 14.7344 74.8391 14.2367 76.3169 14.2367C77.1414 14.2367 77.8802 14.4233 78.5336 14.7967C79.1869 15.1544 79.6691 15.66 79.9802 16.3133H80.1436L80.3302 14.47H83.7136V27H80.1436V25.1567H79.9802C79.6691 25.81 79.1791 26.3233 78.5102 26.6967C77.8569 27.0544 77.118 27.2333 76.2936 27.2333ZM77.7402 24.3167C78.4714 24.3167 79.0547 24.0989 79.4902 23.6633C79.9258 23.2122 80.1436 22.5822 80.1436 21.7733V19.72C80.1436 18.9111 79.9258 18.2811 79.4902 17.83C79.0547 17.3789 78.4714 17.1533 77.7402 17.1533C76.978 17.1533 76.3869 17.3789 75.9669 17.83C75.5469 18.2656 75.3369 18.88 75.3369 19.6733V21.82C75.3369 22.6133 75.5469 23.2278 75.9669 23.6633C76.3869 24.0989 76.978 24.3167 77.7402 24.3167ZM87.4681 27V14.47H90.8047L91.0614 16.5233H91.2714C91.5358 15.8389 91.9947 15.2867 92.6481 14.8667C93.3014 14.4467 94.0792 14.2367 94.9814 14.2367C96.3192 14.2367 97.377 14.6489 98.1547 15.4733C98.9325 16.2822 99.3214 17.5655 99.3214 19.3233V27H95.7514V19.79C95.7514 18.7789 95.5492 18.0867 95.1447 17.7133C94.7403 17.34 94.1958 17.1533 93.5114 17.1533C92.7025 17.1533 92.0881 17.4178 91.6681 17.9467C91.2636 18.4756 91.0614 19.1756 91.0614 20.0467V27H87.4681ZM106.918 27.2333C105.238 27.2333 104.017 26.6656 103.255 25.53C102.493 24.3944 102.112 22.8778 102.112 20.98V20.4667C102.112 18.2889 102.539 16.71 103.395 15.73C104.266 14.7344 105.433 14.2367 106.895 14.2367C107.719 14.2367 108.458 14.4233 109.112 14.7967C109.78 15.1544 110.27 15.66 110.582 16.3133H110.745V9.98999H114.338V27H110.932L110.745 25.1567H110.582C110.27 25.81 109.788 26.3233 109.135 26.6967C108.482 27.0544 107.743 27.2333 106.918 27.2333ZM108.342 24.3167C109.073 24.3167 109.656 24.0911 110.092 23.64C110.527 23.1889 110.745 22.5589 110.745 21.75V19.6967C110.745 18.9033 110.527 18.2811 110.092 17.83C109.656 17.3789 109.073 17.1533 108.342 17.1533C107.579 17.1533 106.988 17.3711 106.568 17.8067C106.148 18.2422 105.938 18.8567 105.938 19.65V21.82C105.938 22.5978 106.148 23.2122 106.568 23.6633C106.988 24.0989 107.579 24.3167 108.342 24.3167ZM123.459 27.2333C122.075 27.2333 120.916 26.9689 119.983 26.44C119.065 25.8956 118.38 25.1411 117.929 24.1767C117.478 23.1967 117.253 22.0611 117.253 20.77V20.56C117.253 19.2067 117.502 18.0633 117.999 17.13C118.497 16.1811 119.189 15.4655 120.076 14.9833C120.978 14.4855 122.013 14.2367 123.179 14.2367C124.455 14.2367 125.536 14.4778 126.423 14.96C127.325 15.4422 128.009 16.1189 128.476 16.99C128.943 17.8611 129.176 18.88 129.176 20.0467V21.6333H120.893V22.2867C120.893 22.9556 121.118 23.4922 121.569 23.8967C122.036 24.3011 122.627 24.5033 123.343 24.5033C123.98 24.5033 124.502 24.3633 124.906 24.0833C125.326 23.8033 125.575 23.43 125.653 22.9633H129.036C128.989 23.8189 128.725 24.5656 128.243 25.2033C127.76 25.8411 127.107 26.3389 126.283 26.6967C125.458 27.0544 124.517 27.2333 123.459 27.2333ZM120.893 19.3V19.4167H125.653V19.3C125.653 18.46 125.435 17.8533 124.999 17.48C124.564 17.0911 123.996 16.8967 123.296 16.8967C122.549 16.8967 121.958 17.1067 121.523 17.5267C121.103 17.9311 120.893 18.5222 120.893 19.3ZM132.071 27V17.2467C132.071 16.3911 132.328 15.7144 132.841 15.2167C133.355 14.7189 134.023 14.47 134.848 14.47H139.958V17.3633H135.665V27H132.071ZM140.772 27L146.488 9.98999H151.785L157.525 27H153.745L152.602 23.5933H145.602L144.458 27H140.772ZM146.488 20.6767H151.715L150.035 15.59L149.172 12.9533H149.032L148.168 15.59L146.488 20.6767ZM159.945 27V9.98999H163.772V27H159.945Z" fill="#202020"/>
</g>
<defs>
<clipPath id="clip0_661_1838">
<rect width="166.667" height="40" fill="white"/>
</clipPath>
</defs>
</svg>
