<svg width="200" height="48" viewBox="0 0 200 48" fill="none" xmlns="http://www.w3.org/2000/svg">
<path fill-rule="evenodd" clip-rule="evenodd" d="M2.53743 29.6149C1.19376 28.2712 1.19375 26.0927 2.53743 24.749L25.2486 2.0378C26.5923 0.6941 28.7709 0.694101 30.1146 2.0378L32.0234 3.94655C32.5751 4.49831 32.4761 5.417 31.9244 5.96876V5.96876C28.9954 8.89768 28.9954 13.6464 31.9244 16.5753C34.8533 19.5043 39.602 19.5043 42.5309 16.5753V16.5753C43.0827 16.0236 44.0014 15.9246 44.5531 16.4763L46.4619 18.3851C47.8055 19.7287 47.8055 21.9073 46.4619 23.2509L23.7507 45.9621C22.407 47.3058 20.2284 47.3058 18.8847 45.9621L16.9759 44.0534C16.4242 43.5016 16.5232 42.5829 17.0749 42.0312V42.0312C20.0038 39.1023 20.0038 34.3535 17.0749 31.4246C14.146 28.4957 9.39726 28.4957 6.46833 31.4246V31.4246C5.91658 31.9763 4.99789 32.0753 4.44614 31.5236L2.53743 29.6149Z" fill="url(#paint0_linear_8_2)"/>
<path d="M61.344 33L57.2 12.588H61.96L64.312 26.504L64.648 28.744H64.844L68.288 12.588H73.328L76.744 28.744H76.968L77.276 26.812L79.572 12.588H84.304L80.272 33H74.028L71.228 20.344L70.892 18.692H70.724L70.388 20.344L67.588 33H61.344ZM91.4519 33.28C89.4545 33.28 87.9985 32.608 87.0839 31.264C86.1692 29.9013 85.7119 28.0907 85.7119 25.832V25.188C85.7119 22.556 86.2252 20.652 87.2519 19.476C88.2972 18.2813 89.7065 17.684 91.4799 17.684C92.4692 17.684 93.3559 17.908 94.1399 18.356C94.9239 18.7853 95.5025 19.392 95.8759 20.176H96.0719L96.2959 17.964H100.356V33H96.0719V30.788H95.8759C95.5025 31.572 94.9145 32.188 94.1119 32.636C93.3279 33.0653 92.4412 33.28 91.4519 33.28ZM93.1879 29.78C94.0652 29.78 94.7652 29.5187 95.2879 28.996C95.8105 28.4547 96.0719 27.6987 96.0719 26.728V24.264C96.0719 23.2933 95.8105 22.5373 95.2879 21.996C94.7652 21.4547 94.0652 21.184 93.1879 21.184C92.2732 21.184 91.5639 21.4547 91.0599 21.996C90.5559 22.5187 90.3039 23.256 90.3039 24.208V26.784C90.3039 27.736 90.5559 28.4733 91.0599 28.996C91.5639 29.5187 92.2732 29.78 93.1879 29.78ZM104.861 33V17.964H108.865L109.173 20.428H109.425C109.743 19.6067 110.293 18.944 111.077 18.44C111.861 17.936 112.795 17.684 113.877 17.684C115.483 17.684 116.752 18.1787 117.685 19.168C118.619 20.1387 119.085 21.6787 119.085 23.788V33H114.801V24.348C114.801 23.1347 114.559 22.304 114.073 21.856C113.588 21.408 112.935 21.184 112.113 21.184C111.143 21.184 110.405 21.5013 109.901 22.136C109.416 22.7707 109.173 23.6107 109.173 24.656V33H104.861ZM128.201 33.28C126.185 33.28 124.72 32.5987 123.805 31.236C122.891 29.8733 122.433 28.0533 122.433 25.776V25.16C122.433 22.5467 122.947 20.652 123.973 19.476C125.019 18.2813 126.419 17.684 128.173 17.684C129.163 17.684 130.049 17.908 130.833 18.356C131.636 18.7853 132.224 19.392 132.597 20.176H132.793V12.588H137.105V33H133.017L132.793 30.788H132.597C132.224 31.572 131.645 32.188 130.861 32.636C130.077 33.0653 129.191 33.28 128.201 33.28ZM129.909 29.78C130.787 29.78 131.487 29.5093 132.009 28.968C132.532 28.4267 132.793 27.6707 132.793 26.7V24.236C132.793 23.284 132.532 22.5373 132.009 21.996C131.487 21.4547 130.787 21.184 129.909 21.184C128.995 21.184 128.285 21.4453 127.781 21.968C127.277 22.4907 127.025 23.228 127.025 24.18V26.784C127.025 27.7173 127.277 28.4547 127.781 28.996C128.285 29.5187 128.995 29.78 129.909 29.78ZM148.051 33.28C146.389 33.28 144.999 32.9627 143.879 32.328C142.777 31.6747 141.956 30.7693 141.415 29.612C140.873 28.436 140.603 27.0733 140.603 25.524V25.272C140.603 23.648 140.901 22.276 141.499 21.156C142.096 20.0173 142.927 19.1587 143.991 18.58C145.073 17.9827 146.315 17.684 147.715 17.684C149.245 17.684 150.543 17.9733 151.607 18.552C152.689 19.1307 153.511 19.9427 154.071 20.988C154.631 22.0333 154.911 23.256 154.911 24.656V26.56H144.971V27.344C144.971 28.1467 145.241 28.7907 145.783 29.276C146.343 29.7613 147.052 30.004 147.911 30.004C148.676 30.004 149.301 29.836 149.787 29.5C150.291 29.164 150.589 28.716 150.683 28.156H154.743C154.687 29.1827 154.369 30.0787 153.791 30.844C153.212 31.6093 152.428 32.2067 151.439 32.636C150.449 33.0653 149.32 33.28 148.051 33.28ZM144.971 23.76V23.9H150.683V23.76C150.683 22.752 150.421 22.024 149.899 21.576C149.376 21.1093 148.695 20.876 147.855 20.876C146.959 20.876 146.249 21.128 145.727 21.632C145.223 22.1173 144.971 22.8267 144.971 23.76ZM158.385 33V21.296C158.385 20.2693 158.693 19.4573 159.309 18.86C159.925 18.2627 160.728 17.964 161.717 17.964H167.849V21.436H162.697V33H158.385ZM168.826 33L175.686 12.588H182.042L188.93 33H184.394L183.022 28.912H174.622L173.25 33H168.826ZM175.686 25.412H181.958L179.942 19.308L178.906 16.144H178.738L177.702 19.308L175.686 25.412ZM191.834 33V12.588H196.426V33H191.834Z" fill="#21232C"/>
<defs>
<linearGradient id="paint0_linear_8_2" x1="13.8931" y1="13.3934" x2="35.1062" y2="34.6066" gradientUnits="userSpaceOnUse">
<stop stop-color="#FFB64F"/>
<stop offset="1" stop-color="#E16C00"/>
</linearGradient>
</defs>
</svg>
