<svg width="167" height="40" viewBox="0 0 167 40" fill="none" xmlns="http://www.w3.org/2000/svg">
<path fill-rule="evenodd" clip-rule="evenodd" d="M24.0188 7.16223C24.0188 5.32926 21.7584 4.46186 20.5322 5.8243L7.91187 19.8469C6.75353 21.134 7.66692 23.1849 9.39846 23.1849H17.6485V32.8371C17.6485 34.67 19.9089 35.5374 21.135 34.175L33.7554 20.1524C34.9138 18.8653 34.0004 16.8144 32.2688 16.8144H24.0188V7.16223ZM24.0188 16.8144H17.6485V23.1849H20.0188C22.228 23.1849 24.0188 21.394 24.0188 19.1849V16.8144Z" fill="#1B1B1B"/>
<path d="M44.5435 27L41.2068 9.98999H45.7335L47.4135 21.0267L47.6935 22.94H47.8802L50.4468 9.98999H55.2068L57.7735 22.94H57.9835L58.1935 21.33L59.8735 9.98999H64.4235L61.1335 27H55.1602L53.1768 17.3167L52.9202 15.8933H52.7568L52.5002 17.3167L50.4935 27H44.5435ZM70.1402 27.2333C69.0046 27.2333 68.0791 26.9767 67.3635 26.4633C66.6635 25.95 66.1502 25.2267 65.8235 24.2933C65.4968 23.3444 65.3335 22.2478 65.3335 21.0033V20.3967C65.3335 18.1722 65.7691 16.5778 66.6402 15.6133C67.5113 14.6333 68.678 14.1433 70.1402 14.1433C70.9335 14.1433 71.6491 14.3144 72.2868 14.6567C72.9402 14.9833 73.4224 15.4655 73.7335 16.1033H73.9202L74.1302 14.3533H78.0269V27H73.9202V25.2733H73.7335C73.4224 25.8956 72.9402 26.3778 72.2868 26.72C71.6491 27.0622 70.9335 27.2333 70.1402 27.2333ZM71.8202 23.8967C72.458 23.8967 72.9635 23.71 73.3368 23.3367C73.7102 22.9633 73.8968 22.4189 73.8968 21.7033V19.65C73.8968 18.95 73.7102 18.4133 73.3368 18.04C72.9635 17.6511 72.458 17.4567 71.8202 17.4567C71.1513 17.4567 70.6302 17.6511 70.2568 18.04C69.8991 18.4289 69.7202 18.9656 69.7202 19.65V21.75C69.7202 22.4189 69.8991 22.9478 70.2568 23.3367C70.6302 23.71 71.1513 23.8967 71.8202 23.8967ZM81.3808 27V14.3533H85.2308L85.5108 16.29H85.7442C86.0086 15.6522 86.452 15.1311 87.0742 14.7267C87.712 14.3222 88.4664 14.12 89.3375 14.12C90.6753 14.12 91.7408 14.5244 92.5342 15.3333C93.3275 16.1422 93.7242 17.4567 93.7242 19.2767V27H89.5942V19.8133C89.5942 18.9111 89.4153 18.2967 89.0575 17.97C88.7153 17.6278 88.2408 17.4567 87.6342 17.4567C86.9186 17.4567 86.382 17.69 86.0242 18.1567C85.682 18.6233 85.5108 19.2456 85.5108 20.0233V27H81.3808ZM101.038 27.2333C99.9022 27.2333 98.9766 26.9767 98.2611 26.4633C97.5611 25.9344 97.0477 25.2033 96.7211 24.27C96.3944 23.3367 96.2311 22.24 96.2311 20.98V20.3733C96.2311 18.1489 96.6666 16.5544 97.5377 15.59C98.4088 14.61 99.5755 14.12 101.038 14.12C101.831 14.12 102.547 14.2911 103.184 14.6333C103.838 14.9755 104.32 15.4655 104.631 16.1033H104.818V9.98999H108.948V27H105.028L104.818 25.2733H104.631C104.32 25.8956 103.838 26.3778 103.184 26.72C102.547 27.0622 101.831 27.2333 101.038 27.2333ZM102.718 23.8967C103.356 23.8967 103.861 23.71 104.234 23.3367C104.608 22.9633 104.794 22.4189 104.794 21.7033V19.65C104.794 18.95 104.608 18.4133 104.234 18.04C103.861 17.6511 103.356 17.4567 102.718 17.4567C102.049 17.4567 101.528 17.6511 101.154 18.04C100.797 18.4289 100.618 18.9656 100.618 19.65V21.7267C100.618 22.3956 100.797 22.9244 101.154 23.3133C101.528 23.7022 102.049 23.8967 102.718 23.8967ZM117.948 27.2333C116.532 27.2333 115.35 26.9689 114.401 26.44C113.452 25.8956 112.737 25.1333 112.255 24.1533C111.788 23.1733 111.555 22.0378 111.555 20.7467V20.49C111.555 19.1211 111.811 17.97 112.325 17.0367C112.838 16.0878 113.546 15.3644 114.448 14.8667C115.366 14.3689 116.416 14.12 117.598 14.12C118.92 14.12 120.04 14.3689 120.958 14.8667C121.891 15.3489 122.599 16.0333 123.081 16.92C123.563 17.7911 123.805 18.8178 123.805 20V21.7267H115.731V22.31C115.731 22.8389 115.926 23.2744 116.315 23.6167C116.703 23.9589 117.201 24.13 117.808 24.13C118.352 24.13 118.796 24.0211 119.138 23.8033C119.48 23.57 119.682 23.2667 119.745 22.8933H123.665C123.618 23.7489 123.346 24.5033 122.848 25.1567C122.35 25.81 121.681 26.3233 120.841 26.6967C120.001 27.0544 119.037 27.2333 117.948 27.2333ZM115.731 19.1133V19.23H119.745V19.1133C119.745 18.4444 119.558 17.9544 119.185 17.6433C118.811 17.3167 118.329 17.1533 117.738 17.1533C117.147 17.1533 116.665 17.3244 116.291 17.6667C115.918 17.9933 115.731 18.4756 115.731 19.1133ZM126.417 27V17.4567C126.417 16.5233 126.697 15.7767 127.257 15.2167C127.832 14.6411 128.579 14.3533 129.497 14.3533H134.63V17.6667H130.547V27H126.417ZM135.349 27L140.902 9.98999H147.016L152.592 27H148.229L147.249 23.8733H140.552L139.572 27H135.349ZM141.579 20.56H146.222L144.706 15.7067L143.982 13.3733H143.819L143.096 15.73L141.579 20.56ZM154.746 27V9.98999H159.132V27H154.746Z" fill="#202020"/>
</svg>
